<mxfile host="Electron" modified="2024-01-11T14:47:11.731Z" agent="Mozilla/5.0 (Windows NT 10.0; Win64; x64) AppleWebKit/537.36 (KHTML, like Gecko) draw.io/21.7.5 Chrome/114.0.5735.289 Electron/25.8.1 Safari/537.36" etag="ESQs47zCeQVdS6E0LanQ" version="21.7.5" type="device">
  <diagram id="19Gw4mGQNyPesh3GF-2r" name="Page-1">
    <mxGraphModel dx="1418" dy="948" grid="1" gridSize="10" guides="1" tooltips="1" connect="1" arrows="1" fold="1" page="1" pageScale="1" pageWidth="1654" pageHeight="1169" math="1" shadow="0">
      <root>
        <mxCell id="0" />
        <mxCell id="1" parent="0" />
        <mxCell id="4SvfXK36nhVaso6GFICK-236" value="" style="rounded=0;whiteSpace=wrap;html=1;fillColor=#fff2cc;strokeColor=none;" vertex="1" parent="1">
          <mxGeometry x="240" y="720" width="320" height="80" as="geometry" />
        </mxCell>
        <mxCell id="4SvfXK36nhVaso6GFICK-235" value="" style="rounded=0;whiteSpace=wrap;html=1;fillColor=#fff2cc;strokeColor=none;" vertex="1" parent="1">
          <mxGeometry x="560" y="680" width="320" height="120" as="geometry" />
        </mxCell>
        <mxCell id="4SvfXK36nhVaso6GFICK-228" value="" style="rounded=0;whiteSpace=wrap;html=1;fillColor=#fff2cc;strokeColor=#d6b656;" vertex="1" parent="1">
          <mxGeometry x="920" y="160" width="120" height="160" as="geometry" />
        </mxCell>
        <mxCell id="4SvfXK36nhVaso6GFICK-226" value="" style="rounded=0;whiteSpace=wrap;html=1;fillColor=#dae8fc;strokeColor=none;" vertex="1" parent="1">
          <mxGeometry x="240" y="640" width="160" height="40" as="geometry" />
        </mxCell>
        <mxCell id="4SvfXK36nhVaso6GFICK-221" value="" style="rounded=0;whiteSpace=wrap;html=1;fillColor=#dae8fc;strokeColor=none;" vertex="1" parent="1">
          <mxGeometry x="240" y="562" width="250" height="78" as="geometry" />
        </mxCell>
        <mxCell id="4SvfXK36nhVaso6GFICK-220" value="" style="rounded=0;whiteSpace=wrap;html=1;fillColor=#dae8fc;strokeColor=none;" vertex="1" parent="1">
          <mxGeometry x="240" y="565" width="350" height="75" as="geometry" />
        </mxCell>
        <mxCell id="4SvfXK36nhVaso6GFICK-219" value="" style="rounded=0;whiteSpace=wrap;html=1;fillColor=#dae8fc;strokeColor=none;" vertex="1" parent="1">
          <mxGeometry x="400" y="571" width="480" height="68" as="geometry" />
        </mxCell>
        <mxCell id="4SvfXK36nhVaso6GFICK-152" value="" style="rounded=0;whiteSpace=wrap;html=1;fillColor=#f8cecc;strokeColor=none;" vertex="1" parent="1">
          <mxGeometry x="640" y="480" width="160" height="94" as="geometry" />
        </mxCell>
        <mxCell id="4SvfXK36nhVaso6GFICK-151" value="" style="rounded=0;whiteSpace=wrap;html=1;fillColor=#f8cecc;strokeColor=none;" vertex="1" parent="1">
          <mxGeometry x="560" y="480" width="320" height="89" as="geometry" />
        </mxCell>
        <mxCell id="4SvfXK36nhVaso6GFICK-146" value="" style="rounded=0;whiteSpace=wrap;html=1;fillColor=#f8cecc;strokeColor=none;" vertex="1" parent="1">
          <mxGeometry x="400" y="480" width="480" height="82" as="geometry" />
        </mxCell>
        <mxCell id="4SvfXK36nhVaso6GFICK-147" value="" style="rounded=0;whiteSpace=wrap;html=1;fillColor=#f8cecc;strokeColor=none;" vertex="1" parent="1">
          <mxGeometry x="240" y="520" width="160" height="41" as="geometry" />
        </mxCell>
        <mxCell id="4SvfXK36nhVaso6GFICK-135" value="" style="rounded=0;whiteSpace=wrap;html=1;fillColor=#ffe6cc;strokeColor=none;" vertex="1" parent="1">
          <mxGeometry x="240" y="360" width="160" height="160" as="geometry" />
        </mxCell>
        <mxCell id="4SvfXK36nhVaso6GFICK-97" value="" style="rounded=0;whiteSpace=wrap;html=1;fillColor=#ffe6cc;strokeColor=none;" vertex="1" parent="1">
          <mxGeometry x="400" y="320" width="480" height="160" as="geometry" />
        </mxCell>
        <mxCell id="4SvfXK36nhVaso6GFICK-96" value="" style="rounded=0;whiteSpace=wrap;html=1;fillColor=#fff2cc;strokeColor=none;" vertex="1" parent="1">
          <mxGeometry x="240" y="200" width="160" height="160" as="geometry" />
        </mxCell>
        <mxCell id="4SvfXK36nhVaso6GFICK-95" value="" style="rounded=0;whiteSpace=wrap;html=1;fillColor=#fff2cc;strokeColor=none;" vertex="1" parent="1">
          <mxGeometry x="400" y="160" width="480" height="160" as="geometry" />
        </mxCell>
        <mxCell id="rp6tkoyNBikpa_YtvWkM-123" value="" style="endArrow=none;html=1;rounded=0;startSize=4;endSize=4;strokeWidth=1;" parent="1" edge="1">
          <mxGeometry width="50" height="50" relative="1" as="geometry">
            <mxPoint x="240" y="240" as="sourcePoint" />
            <mxPoint x="880" y="240" as="targetPoint" />
          </mxGeometry>
        </mxCell>
        <mxCell id="rp6tkoyNBikpa_YtvWkM-124" value="" style="endArrow=none;html=1;rounded=0;startSize=4;endSize=4;strokeWidth=1;" parent="1" edge="1">
          <mxGeometry width="50" height="50" relative="1" as="geometry">
            <mxPoint x="240" y="280" as="sourcePoint" />
            <mxPoint x="880" y="280" as="targetPoint" />
          </mxGeometry>
        </mxCell>
        <mxCell id="rp6tkoyNBikpa_YtvWkM-125" value="" style="endArrow=none;html=1;rounded=0;startSize=4;endSize=4;strokeWidth=1;" parent="1" edge="1">
          <mxGeometry width="50" height="50" relative="1" as="geometry">
            <mxPoint x="240" y="320" as="sourcePoint" />
            <mxPoint x="880" y="320" as="targetPoint" />
          </mxGeometry>
        </mxCell>
        <mxCell id="rp6tkoyNBikpa_YtvWkM-126" value="" style="endArrow=none;html=1;rounded=0;startSize=4;endSize=4;strokeWidth=1;entryX=0.5;entryY=0;entryDx=0;entryDy=0;" parent="1" edge="1">
          <mxGeometry width="50" height="50" relative="1" as="geometry">
            <mxPoint x="560" y="640" as="sourcePoint" />
            <mxPoint x="560" y="120" as="targetPoint" />
          </mxGeometry>
        </mxCell>
        <mxCell id="rp6tkoyNBikpa_YtvWkM-127" value="" style="endArrow=none;html=1;rounded=0;startSize=4;endSize=4;strokeWidth=1;" parent="1" edge="1">
          <mxGeometry width="50" height="50" relative="1" as="geometry">
            <mxPoint x="240" y="360" as="sourcePoint" />
            <mxPoint x="880" y="360" as="targetPoint" />
          </mxGeometry>
        </mxCell>
        <mxCell id="rp6tkoyNBikpa_YtvWkM-143" value="" style="endArrow=classic;html=1;rounded=0;startSize=6;endSize=6;strokeWidth=1;" parent="1" edge="1">
          <mxGeometry width="50" height="50" relative="1" as="geometry">
            <mxPoint x="200" y="80" as="sourcePoint" />
            <mxPoint x="200" y="820" as="targetPoint" />
          </mxGeometry>
        </mxCell>
        <mxCell id="rp6tkoyNBikpa_YtvWkM-145" value="&lt;font face=&quot;CMU Serif&quot;&gt;&lt;span style=&quot;font-size: 14px;&quot;&gt;Time&lt;br&gt;&lt;/span&gt;&lt;/font&gt;" style="text;html=1;align=center;verticalAlign=middle;resizable=0;points=[];autosize=1;strokeColor=none;fillColor=none;" parent="1" vertex="1">
          <mxGeometry x="170" y="820" width="60" height="30" as="geometry" />
        </mxCell>
        <mxCell id="rp6tkoyNBikpa_YtvWkM-151" value="" style="rounded=0;whiteSpace=wrap;html=1;strokeColor=none;strokeWidth=1;fillColor=default;" parent="1" vertex="1">
          <mxGeometry x="375" y="175" width="10" height="10" as="geometry" />
        </mxCell>
        <mxCell id="rp6tkoyNBikpa_YtvWkM-153" value="&lt;font face=&quot;CMU Serif&quot;&gt;&lt;span style=&quot;font-size: 14px;&quot;&gt;Sample 0&lt;br&gt;&lt;/span&gt;&lt;/font&gt;" style="text;html=1;align=center;verticalAlign=middle;resizable=0;points=[];autosize=1;strokeColor=none;fillColor=none;" parent="1" vertex="1">
          <mxGeometry x="940" y="225" width="80" height="30" as="geometry" />
        </mxCell>
        <mxCell id="4SvfXK36nhVaso6GFICK-2" value="" style="endArrow=none;html=1;rounded=0;startSize=4;endSize=4;strokeWidth=1;" edge="1" parent="1">
          <mxGeometry width="50" height="50" relative="1" as="geometry">
            <mxPoint x="400" y="680" as="sourcePoint" />
            <mxPoint x="400" y="160" as="targetPoint" />
          </mxGeometry>
        </mxCell>
        <mxCell id="rp6tkoyNBikpa_YtvWkM-119" value="" style="endArrow=none;html=1;rounded=0;startSize=4;endSize=4;strokeWidth=1;" parent="1" edge="1">
          <mxGeometry width="50" height="50" relative="1" as="geometry">
            <mxPoint x="240" y="160" as="sourcePoint" />
            <mxPoint x="880" y="160" as="targetPoint" />
          </mxGeometry>
        </mxCell>
        <mxCell id="rp6tkoyNBikpa_YtvWkM-120" value="" style="endArrow=none;html=1;rounded=0;startSize=4;endSize=4;strokeWidth=1;" parent="1" edge="1">
          <mxGeometry width="50" height="50" relative="1" as="geometry">
            <mxPoint x="240" y="200" as="sourcePoint" />
            <mxPoint x="881.1428571428571" y="200" as="targetPoint" />
          </mxGeometry>
        </mxCell>
        <mxCell id="4SvfXK36nhVaso6GFICK-34" value="&lt;font face=&quot;CMU Serif&quot;&gt;&lt;span style=&quot;font-size: 14px;&quot;&gt;Packet Index [8 - 11]&lt;br&gt;&lt;/span&gt;&lt;/font&gt;" style="text;html=1;align=center;verticalAlign=middle;resizable=0;points=[];autosize=1;strokeColor=none;fillColor=none;imageWidth=30;imageHeight=30;" vertex="1" parent="1">
          <mxGeometry x="565" y="125" width="150" height="30" as="geometry" />
        </mxCell>
        <mxCell id="4SvfXK36nhVaso6GFICK-35" value="&lt;font face=&quot;CMU Serif&quot;&gt;&lt;span style=&quot;font-size: 14px;&quot;&gt;Timestamp [12 - 15]&lt;br&gt;&lt;/span&gt;&lt;/font&gt;" style="text;html=1;align=center;verticalAlign=middle;resizable=0;points=[];autosize=1;strokeColor=none;fillColor=none;" vertex="1" parent="1">
          <mxGeometry x="725" y="125" width="150" height="30" as="geometry" />
        </mxCell>
        <mxCell id="4SvfXK36nhVaso6GFICK-36" value="&lt;font face=&quot;CMU Serif&quot;&gt;&lt;span style=&quot;font-size: 14px;&quot;&gt;Timestamp [16 - 19]&lt;br&gt;&lt;/span&gt;&lt;/font&gt;" style="text;html=1;align=center;verticalAlign=middle;resizable=0;points=[];autosize=1;strokeColor=none;fillColor=none;" vertex="1" parent="1">
          <mxGeometry x="245" y="165" width="150" height="30" as="geometry" />
        </mxCell>
        <mxCell id="4SvfXK36nhVaso6GFICK-37" value="&lt;font face=&quot;CMU Serif&quot;&gt;&lt;span style=&quot;font-size: 14px;&quot;&gt;CH 0&lt;br&gt;&lt;/span&gt;&lt;/font&gt;" style="text;html=1;align=center;verticalAlign=middle;resizable=0;points=[];autosize=1;strokeColor=none;fillColor=none;" vertex="1" parent="1">
          <mxGeometry x="410" y="165" width="60" height="30" as="geometry" />
        </mxCell>
        <mxCell id="4SvfXK36nhVaso6GFICK-39" value="&lt;font face=&quot;CMU Serif&quot;&gt;&lt;span style=&quot;font-size: 14px;&quot;&gt;CH 1&lt;br&gt;&lt;/span&gt;&lt;/font&gt;" style="text;html=1;align=center;verticalAlign=middle;resizable=0;points=[];autosize=1;strokeColor=none;fillColor=none;" vertex="1" parent="1">
          <mxGeometry x="490" y="165" width="60" height="30" as="geometry" />
        </mxCell>
        <mxCell id="4SvfXK36nhVaso6GFICK-42" value="&lt;span style=&quot;font-size: 14px;&quot;&gt;&lt;font face=&quot;CMU Serif&quot;&gt;Magic Sequence [0 - 7] &lt;/font&gt;&lt;font face=&quot;Courier New&quot;&gt;&#39;HERON666&#39;&lt;/font&gt;&lt;br&gt;&lt;/span&gt;" style="text;html=1;align=center;verticalAlign=middle;resizable=0;points=[];autosize=1;strokeColor=none;fillColor=none;imageWidth=30;imageHeight=30;" vertex="1" parent="1">
          <mxGeometry x="275" y="125" width="250" height="30" as="geometry" />
        </mxCell>
        <mxCell id="4SvfXK36nhVaso6GFICK-43" value="" style="endArrow=none;html=1;rounded=0;entryX=0.75;entryY=0;entryDx=0;entryDy=0;" edge="1" parent="1">
          <mxGeometry width="50" height="50" relative="1" as="geometry">
            <mxPoint x="720" y="160" as="sourcePoint" />
            <mxPoint x="720" y="120" as="targetPoint" />
          </mxGeometry>
        </mxCell>
        <mxCell id="4SvfXK36nhVaso6GFICK-45" value="" style="endArrow=none;html=1;rounded=0;startSize=4;endSize=4;strokeWidth=1;" edge="1" parent="1">
          <mxGeometry width="50" height="50" relative="1" as="geometry">
            <mxPoint x="480" y="640" as="sourcePoint" />
            <mxPoint x="480" y="160" as="targetPoint" />
          </mxGeometry>
        </mxCell>
        <mxCell id="4SvfXK36nhVaso6GFICK-46" value="" style="endArrow=none;html=1;rounded=0;startSize=4;endSize=4;strokeWidth=1;" edge="1" parent="1">
          <mxGeometry width="50" height="50" relative="1" as="geometry">
            <mxPoint x="640" y="640" as="sourcePoint" />
            <mxPoint x="640" y="160" as="targetPoint" />
          </mxGeometry>
        </mxCell>
        <mxCell id="4SvfXK36nhVaso6GFICK-47" value="" style="endArrow=none;html=1;rounded=0;startSize=4;endSize=4;strokeWidth=1;" edge="1" parent="1">
          <mxGeometry width="50" height="50" relative="1" as="geometry">
            <mxPoint x="720" y="800" as="sourcePoint" />
            <mxPoint x="720" y="160" as="targetPoint" />
          </mxGeometry>
        </mxCell>
        <mxCell id="4SvfXK36nhVaso6GFICK-48" value="" style="endArrow=none;html=1;rounded=0;startSize=4;endSize=4;strokeWidth=1;" edge="1" parent="1">
          <mxGeometry width="50" height="50" relative="1" as="geometry">
            <mxPoint x="800" y="640" as="sourcePoint" />
            <mxPoint x="800" y="160" as="targetPoint" />
          </mxGeometry>
        </mxCell>
        <mxCell id="4SvfXK36nhVaso6GFICK-49" value="&lt;font face=&quot;CMU Serif&quot;&gt;&lt;span style=&quot;font-size: 14px;&quot;&gt;CH 2&lt;br&gt;&lt;/span&gt;&lt;/font&gt;" style="text;html=1;align=center;verticalAlign=middle;resizable=0;points=[];autosize=1;strokeColor=none;fillColor=none;" vertex="1" parent="1">
          <mxGeometry x="570" y="165" width="60" height="30" as="geometry" />
        </mxCell>
        <mxCell id="4SvfXK36nhVaso6GFICK-50" value="&lt;font face=&quot;CMU Serif&quot;&gt;&lt;span style=&quot;font-size: 14px;&quot;&gt;CH 3&lt;br&gt;&lt;/span&gt;&lt;/font&gt;" style="text;html=1;align=center;verticalAlign=middle;resizable=0;points=[];autosize=1;strokeColor=none;fillColor=none;" vertex="1" parent="1">
          <mxGeometry x="650" y="165" width="60" height="30" as="geometry" />
        </mxCell>
        <mxCell id="4SvfXK36nhVaso6GFICK-51" value="&lt;font face=&quot;CMU Serif&quot;&gt;&lt;span style=&quot;font-size: 14px;&quot;&gt;CH 4&lt;br&gt;&lt;/span&gt;&lt;/font&gt;" style="text;html=1;align=center;verticalAlign=middle;resizable=0;points=[];autosize=1;strokeColor=none;fillColor=none;" vertex="1" parent="1">
          <mxGeometry x="730" y="165" width="60" height="30" as="geometry" />
        </mxCell>
        <mxCell id="4SvfXK36nhVaso6GFICK-52" value="&lt;font face=&quot;CMU Serif&quot;&gt;&lt;span style=&quot;font-size: 14px;&quot;&gt;CH 5&lt;br&gt;&lt;/span&gt;&lt;/font&gt;" style="text;html=1;align=center;verticalAlign=middle;resizable=0;points=[];autosize=1;strokeColor=none;fillColor=none;" vertex="1" parent="1">
          <mxGeometry x="810" y="165" width="60" height="30" as="geometry" />
        </mxCell>
        <mxCell id="4SvfXK36nhVaso6GFICK-53" value="&lt;font face=&quot;CMU Serif&quot;&gt;&lt;span style=&quot;font-size: 14px;&quot;&gt;CH 6&lt;br&gt;&lt;/span&gt;&lt;/font&gt;" style="text;html=1;align=center;verticalAlign=middle;resizable=0;points=[];autosize=1;strokeColor=none;fillColor=none;" vertex="1" parent="1">
          <mxGeometry x="250" y="205" width="60" height="30" as="geometry" />
        </mxCell>
        <mxCell id="4SvfXK36nhVaso6GFICK-54" value="" style="endArrow=none;html=1;rounded=0;startSize=4;endSize=4;strokeWidth=1;" edge="1" parent="1">
          <mxGeometry width="50" height="50" relative="1" as="geometry">
            <mxPoint x="320" y="680" as="sourcePoint" />
            <mxPoint x="320" y="200" as="targetPoint" />
          </mxGeometry>
        </mxCell>
        <mxCell id="4SvfXK36nhVaso6GFICK-55" value="&lt;font face=&quot;CMU Serif&quot;&gt;&lt;span style=&quot;font-size: 14px;&quot;&gt;CH 7&lt;br&gt;&lt;/span&gt;&lt;/font&gt;" style="text;html=1;align=center;verticalAlign=middle;resizable=0;points=[];autosize=1;strokeColor=none;fillColor=none;" vertex="1" parent="1">
          <mxGeometry x="330" y="205" width="60" height="30" as="geometry" />
        </mxCell>
        <mxCell id="4SvfXK36nhVaso6GFICK-56" value="&lt;font face=&quot;CMU Serif&quot;&gt;&lt;span style=&quot;font-size: 14px;&quot;&gt;CH 8&lt;br&gt;&lt;/span&gt;&lt;/font&gt;" style="text;html=1;align=center;verticalAlign=middle;resizable=0;points=[];autosize=1;strokeColor=none;fillColor=none;" vertex="1" parent="1">
          <mxGeometry x="410" y="205" width="60" height="30" as="geometry" />
        </mxCell>
        <mxCell id="4SvfXK36nhVaso6GFICK-57" value="&lt;font face=&quot;CMU Serif&quot;&gt;&lt;span style=&quot;font-size: 14px;&quot;&gt;CH 9&lt;br&gt;&lt;/span&gt;&lt;/font&gt;" style="text;html=1;align=center;verticalAlign=middle;resizable=0;points=[];autosize=1;strokeColor=none;fillColor=none;" vertex="1" parent="1">
          <mxGeometry x="490" y="205" width="60" height="30" as="geometry" />
        </mxCell>
        <mxCell id="4SvfXK36nhVaso6GFICK-58" value="&lt;font face=&quot;CMU Serif&quot;&gt;&lt;span style=&quot;font-size: 14px;&quot;&gt;CH 10&lt;br&gt;&lt;/span&gt;&lt;/font&gt;" style="text;html=1;align=center;verticalAlign=middle;resizable=0;points=[];autosize=1;strokeColor=none;fillColor=none;" vertex="1" parent="1">
          <mxGeometry x="570" y="205" width="60" height="30" as="geometry" />
        </mxCell>
        <mxCell id="4SvfXK36nhVaso6GFICK-59" value="&lt;font face=&quot;CMU Serif&quot;&gt;&lt;span style=&quot;font-size: 14px;&quot;&gt;CH 11&lt;br&gt;&lt;/span&gt;&lt;/font&gt;" style="text;html=1;align=center;verticalAlign=middle;resizable=0;points=[];autosize=1;strokeColor=none;fillColor=none;" vertex="1" parent="1">
          <mxGeometry x="650" y="205" width="60" height="30" as="geometry" />
        </mxCell>
        <mxCell id="4SvfXK36nhVaso6GFICK-60" value="&lt;font face=&quot;CMU Serif&quot;&gt;&lt;span style=&quot;font-size: 14px;&quot;&gt;CH 12&lt;br&gt;&lt;/span&gt;&lt;/font&gt;" style="text;html=1;align=center;verticalAlign=middle;resizable=0;points=[];autosize=1;strokeColor=none;fillColor=none;" vertex="1" parent="1">
          <mxGeometry x="730" y="205" width="60" height="30" as="geometry" />
        </mxCell>
        <mxCell id="4SvfXK36nhVaso6GFICK-61" value="&lt;font face=&quot;CMU Serif&quot;&gt;&lt;span style=&quot;font-size: 14px;&quot;&gt;CH 13&lt;br&gt;&lt;/span&gt;&lt;/font&gt;" style="text;html=1;align=center;verticalAlign=middle;resizable=0;points=[];autosize=1;strokeColor=none;fillColor=none;" vertex="1" parent="1">
          <mxGeometry x="810" y="205" width="60" height="30" as="geometry" />
        </mxCell>
        <mxCell id="4SvfXK36nhVaso6GFICK-62" value="&lt;font face=&quot;CMU Serif&quot;&gt;&lt;span style=&quot;font-size: 14px;&quot;&gt;CH 14&lt;br&gt;&lt;/span&gt;&lt;/font&gt;" style="text;html=1;align=center;verticalAlign=middle;resizable=0;points=[];autosize=1;strokeColor=none;fillColor=none;" vertex="1" parent="1">
          <mxGeometry x="250" y="245" width="60" height="30" as="geometry" />
        </mxCell>
        <mxCell id="4SvfXK36nhVaso6GFICK-63" value="&lt;font face=&quot;CMU Serif&quot;&gt;&lt;span style=&quot;font-size: 14px;&quot;&gt;CH 15&lt;br&gt;&lt;/span&gt;&lt;/font&gt;" style="text;html=1;align=center;verticalAlign=middle;resizable=0;points=[];autosize=1;strokeColor=none;fillColor=none;" vertex="1" parent="1">
          <mxGeometry x="331" y="245" width="60" height="30" as="geometry" />
        </mxCell>
        <mxCell id="4SvfXK36nhVaso6GFICK-64" value="&lt;font face=&quot;CMU Serif&quot;&gt;&lt;span style=&quot;font-size: 14px;&quot;&gt;CH 16&lt;br&gt;&lt;/span&gt;&lt;/font&gt;" style="text;html=1;align=center;verticalAlign=middle;resizable=0;points=[];autosize=1;strokeColor=none;fillColor=none;" vertex="1" parent="1">
          <mxGeometry x="410" y="245" width="60" height="30" as="geometry" />
        </mxCell>
        <mxCell id="4SvfXK36nhVaso6GFICK-65" value="&lt;font face=&quot;CMU Serif&quot;&gt;&lt;span style=&quot;font-size: 14px;&quot;&gt;CH 17&lt;br&gt;&lt;/span&gt;&lt;/font&gt;" style="text;html=1;align=center;verticalAlign=middle;resizable=0;points=[];autosize=1;strokeColor=none;fillColor=none;" vertex="1" parent="1">
          <mxGeometry x="490" y="245" width="60" height="30" as="geometry" />
        </mxCell>
        <mxCell id="4SvfXK36nhVaso6GFICK-66" value="&lt;font face=&quot;CMU Serif&quot;&gt;&lt;span style=&quot;font-size: 14px;&quot;&gt;CH 18&lt;br&gt;&lt;/span&gt;&lt;/font&gt;" style="text;html=1;align=center;verticalAlign=middle;resizable=0;points=[];autosize=1;strokeColor=none;fillColor=none;" vertex="1" parent="1">
          <mxGeometry x="570" y="245" width="60" height="30" as="geometry" />
        </mxCell>
        <mxCell id="4SvfXK36nhVaso6GFICK-67" value="&lt;font face=&quot;CMU Serif&quot;&gt;&lt;span style=&quot;font-size: 14px;&quot;&gt;CH 19&lt;br&gt;&lt;/span&gt;&lt;/font&gt;" style="text;html=1;align=center;verticalAlign=middle;resizable=0;points=[];autosize=1;strokeColor=none;fillColor=none;" vertex="1" parent="1">
          <mxGeometry x="650" y="245" width="60" height="30" as="geometry" />
        </mxCell>
        <mxCell id="4SvfXK36nhVaso6GFICK-68" value="&lt;font face=&quot;CMU Serif&quot;&gt;&lt;span style=&quot;font-size: 14px;&quot;&gt;CH 20&lt;br&gt;&lt;/span&gt;&lt;/font&gt;" style="text;html=1;align=center;verticalAlign=middle;resizable=0;points=[];autosize=1;strokeColor=none;fillColor=none;" vertex="1" parent="1">
          <mxGeometry x="730" y="245" width="60" height="30" as="geometry" />
        </mxCell>
        <mxCell id="4SvfXK36nhVaso6GFICK-69" value="&lt;font face=&quot;CMU Serif&quot;&gt;&lt;span style=&quot;font-size: 14px;&quot;&gt;CH 21&lt;br&gt;&lt;/span&gt;&lt;/font&gt;" style="text;html=1;align=center;verticalAlign=middle;resizable=0;points=[];autosize=1;strokeColor=none;fillColor=none;" vertex="1" parent="1">
          <mxGeometry x="810" y="245" width="60" height="30" as="geometry" />
        </mxCell>
        <mxCell id="4SvfXK36nhVaso6GFICK-71" value="&lt;font face=&quot;CMU Serif&quot;&gt;&lt;span style=&quot;font-size: 14px;&quot;&gt;CH 22&lt;br&gt;&lt;/span&gt;&lt;/font&gt;" style="text;html=1;align=center;verticalAlign=middle;resizable=0;points=[];autosize=1;strokeColor=none;fillColor=none;" vertex="1" parent="1">
          <mxGeometry x="250" y="285" width="60" height="30" as="geometry" />
        </mxCell>
        <mxCell id="4SvfXK36nhVaso6GFICK-72" value="&lt;font face=&quot;CMU Serif&quot;&gt;&lt;span style=&quot;font-size: 14px;&quot;&gt;CH 23&lt;br&gt;&lt;/span&gt;&lt;/font&gt;" style="text;html=1;align=center;verticalAlign=middle;resizable=0;points=[];autosize=1;strokeColor=none;fillColor=none;" vertex="1" parent="1">
          <mxGeometry x="330" y="285" width="60" height="30" as="geometry" />
        </mxCell>
        <mxCell id="4SvfXK36nhVaso6GFICK-73" value="&lt;font face=&quot;CMU Serif&quot;&gt;&lt;span style=&quot;font-size: 14px;&quot;&gt;CH 24&lt;br&gt;&lt;/span&gt;&lt;/font&gt;" style="text;html=1;align=center;verticalAlign=middle;resizable=0;points=[];autosize=1;strokeColor=none;fillColor=none;" vertex="1" parent="1">
          <mxGeometry x="410" y="285" width="60" height="30" as="geometry" />
        </mxCell>
        <mxCell id="4SvfXK36nhVaso6GFICK-74" value="&lt;font face=&quot;CMU Serif&quot;&gt;&lt;span style=&quot;font-size: 14px;&quot;&gt;CH 25&lt;br&gt;&lt;/span&gt;&lt;/font&gt;" style="text;html=1;align=center;verticalAlign=middle;resizable=0;points=[];autosize=1;strokeColor=none;fillColor=none;" vertex="1" parent="1">
          <mxGeometry x="490" y="285" width="60" height="30" as="geometry" />
        </mxCell>
        <mxCell id="4SvfXK36nhVaso6GFICK-75" value="&lt;font face=&quot;CMU Serif&quot;&gt;&lt;span style=&quot;font-size: 14px;&quot;&gt;CH 26&lt;br&gt;&lt;/span&gt;&lt;/font&gt;" style="text;html=1;align=center;verticalAlign=middle;resizable=0;points=[];autosize=1;strokeColor=none;fillColor=none;" vertex="1" parent="1">
          <mxGeometry x="570" y="285" width="60" height="30" as="geometry" />
        </mxCell>
        <mxCell id="4SvfXK36nhVaso6GFICK-76" value="&lt;font face=&quot;CMU Serif&quot;&gt;&lt;span style=&quot;font-size: 14px;&quot;&gt;CH 27&lt;br&gt;&lt;/span&gt;&lt;/font&gt;" style="text;html=1;align=center;verticalAlign=middle;resizable=0;points=[];autosize=1;strokeColor=none;fillColor=none;" vertex="1" parent="1">
          <mxGeometry x="650" y="285" width="60" height="30" as="geometry" />
        </mxCell>
        <mxCell id="4SvfXK36nhVaso6GFICK-77" value="&lt;font face=&quot;CMU Serif&quot;&gt;&lt;span style=&quot;font-size: 14px;&quot;&gt;CH 28&lt;br&gt;&lt;/span&gt;&lt;/font&gt;" style="text;html=1;align=center;verticalAlign=middle;resizable=0;points=[];autosize=1;strokeColor=none;fillColor=none;" vertex="1" parent="1">
          <mxGeometry x="730" y="285" width="60" height="30" as="geometry" />
        </mxCell>
        <mxCell id="4SvfXK36nhVaso6GFICK-78" value="&lt;font face=&quot;CMU Serif&quot;&gt;&lt;span style=&quot;font-size: 14px;&quot;&gt;CH 29&lt;br&gt;&lt;/span&gt;&lt;/font&gt;" style="text;html=1;align=center;verticalAlign=middle;resizable=0;points=[];autosize=1;strokeColor=none;fillColor=none;" vertex="1" parent="1">
          <mxGeometry x="810" y="285" width="60" height="30" as="geometry" />
        </mxCell>
        <mxCell id="4SvfXK36nhVaso6GFICK-79" value="&lt;font face=&quot;CMU Serif&quot;&gt;&lt;span style=&quot;font-size: 14px;&quot;&gt;CH 30&lt;br&gt;&lt;/span&gt;&lt;/font&gt;" style="text;html=1;align=center;verticalAlign=middle;resizable=0;points=[];autosize=1;strokeColor=none;fillColor=none;" vertex="1" parent="1">
          <mxGeometry x="250" y="325" width="60" height="30" as="geometry" />
        </mxCell>
        <mxCell id="4SvfXK36nhVaso6GFICK-80" value="&lt;font face=&quot;CMU Serif&quot;&gt;&lt;span style=&quot;font-size: 14px;&quot;&gt;CH 31&lt;br&gt;&lt;/span&gt;&lt;/font&gt;" style="text;html=1;align=center;verticalAlign=middle;resizable=0;points=[];autosize=1;strokeColor=none;fillColor=none;" vertex="1" parent="1">
          <mxGeometry x="325" y="325" width="60" height="30" as="geometry" />
        </mxCell>
        <mxCell id="4SvfXK36nhVaso6GFICK-81" value="&lt;font face=&quot;CMU Serif&quot;&gt;&lt;span style=&quot;font-size: 14px;&quot;&gt;CH 0&lt;br&gt;&lt;/span&gt;&lt;/font&gt;" style="text;html=1;align=center;verticalAlign=middle;resizable=0;points=[];autosize=1;strokeColor=none;fillColor=none;" vertex="1" parent="1">
          <mxGeometry x="410" y="325" width="60" height="30" as="geometry" />
        </mxCell>
        <mxCell id="4SvfXK36nhVaso6GFICK-82" value="&lt;font face=&quot;CMU Serif&quot;&gt;&lt;span style=&quot;font-size: 14px;&quot;&gt;CH 1&lt;br&gt;&lt;/span&gt;&lt;/font&gt;" style="text;html=1;align=center;verticalAlign=middle;resizable=0;points=[];autosize=1;strokeColor=none;fillColor=none;" vertex="1" parent="1">
          <mxGeometry x="490" y="325" width="60" height="30" as="geometry" />
        </mxCell>
        <mxCell id="4SvfXK36nhVaso6GFICK-83" value="&lt;font face=&quot;CMU Serif&quot;&gt;&lt;span style=&quot;font-size: 14px;&quot;&gt;CH 2&lt;br&gt;&lt;/span&gt;&lt;/font&gt;" style="text;html=1;align=center;verticalAlign=middle;resizable=0;points=[];autosize=1;strokeColor=none;fillColor=none;" vertex="1" parent="1">
          <mxGeometry x="570" y="325" width="60" height="30" as="geometry" />
        </mxCell>
        <mxCell id="4SvfXK36nhVaso6GFICK-84" value="&lt;font face=&quot;CMU Serif&quot;&gt;&lt;span style=&quot;font-size: 14px;&quot;&gt;CH 3&lt;br&gt;&lt;/span&gt;&lt;/font&gt;" style="text;html=1;align=center;verticalAlign=middle;resizable=0;points=[];autosize=1;strokeColor=none;fillColor=none;" vertex="1" parent="1">
          <mxGeometry x="650" y="325" width="60" height="30" as="geometry" />
        </mxCell>
        <mxCell id="4SvfXK36nhVaso6GFICK-85" value="&lt;font face=&quot;CMU Serif&quot;&gt;&lt;span style=&quot;font-size: 14px;&quot;&gt;CH 4&lt;br&gt;&lt;/span&gt;&lt;/font&gt;" style="text;html=1;align=center;verticalAlign=middle;resizable=0;points=[];autosize=1;strokeColor=none;fillColor=none;" vertex="1" parent="1">
          <mxGeometry x="730" y="325" width="60" height="30" as="geometry" />
        </mxCell>
        <mxCell id="4SvfXK36nhVaso6GFICK-86" value="&lt;font face=&quot;CMU Serif&quot;&gt;&lt;span style=&quot;font-size: 14px;&quot;&gt;CH 5&lt;br&gt;&lt;/span&gt;&lt;/font&gt;" style="text;html=1;align=center;verticalAlign=middle;resizable=0;points=[];autosize=1;strokeColor=none;fillColor=none;" vertex="1" parent="1">
          <mxGeometry x="810" y="325" width="60" height="30" as="geometry" />
        </mxCell>
        <mxCell id="4SvfXK36nhVaso6GFICK-87" value="&lt;font face=&quot;CMU Serif&quot;&gt;&lt;span style=&quot;font-size: 14px;&quot;&gt;CH 6&lt;br&gt;&lt;/span&gt;&lt;/font&gt;" style="text;html=1;align=center;verticalAlign=middle;resizable=0;points=[];autosize=1;strokeColor=none;fillColor=none;" vertex="1" parent="1">
          <mxGeometry x="250" y="365" width="60" height="30" as="geometry" />
        </mxCell>
        <mxCell id="4SvfXK36nhVaso6GFICK-88" value="&lt;font face=&quot;CMU Serif&quot;&gt;&lt;span style=&quot;font-size: 14px;&quot;&gt;CH 7&lt;br&gt;&lt;/span&gt;&lt;/font&gt;" style="text;html=1;align=center;verticalAlign=middle;resizable=0;points=[];autosize=1;strokeColor=none;fillColor=none;" vertex="1" parent="1">
          <mxGeometry x="330" y="365" width="60" height="30" as="geometry" />
        </mxCell>
        <mxCell id="4SvfXK36nhVaso6GFICK-89" value="&lt;font face=&quot;CMU Serif&quot;&gt;&lt;span style=&quot;font-size: 14px;&quot;&gt;CH 8&lt;br&gt;&lt;/span&gt;&lt;/font&gt;" style="text;html=1;align=center;verticalAlign=middle;resizable=0;points=[];autosize=1;strokeColor=none;fillColor=none;" vertex="1" parent="1">
          <mxGeometry x="410" y="365" width="60" height="30" as="geometry" />
        </mxCell>
        <mxCell id="4SvfXK36nhVaso6GFICK-90" value="&lt;font face=&quot;CMU Serif&quot;&gt;&lt;span style=&quot;font-size: 14px;&quot;&gt;CH 9&lt;br&gt;&lt;/span&gt;&lt;/font&gt;" style="text;html=1;align=center;verticalAlign=middle;resizable=0;points=[];autosize=1;strokeColor=none;fillColor=none;" vertex="1" parent="1">
          <mxGeometry x="490" y="365" width="60" height="30" as="geometry" />
        </mxCell>
        <mxCell id="4SvfXK36nhVaso6GFICK-91" value="&lt;font face=&quot;CMU Serif&quot;&gt;&lt;span style=&quot;font-size: 14px;&quot;&gt;CH 10&lt;br&gt;&lt;/span&gt;&lt;/font&gt;" style="text;html=1;align=center;verticalAlign=middle;resizable=0;points=[];autosize=1;strokeColor=none;fillColor=none;" vertex="1" parent="1">
          <mxGeometry x="570" y="365" width="60" height="30" as="geometry" />
        </mxCell>
        <mxCell id="4SvfXK36nhVaso6GFICK-92" value="&lt;font face=&quot;CMU Serif&quot;&gt;&lt;span style=&quot;font-size: 14px;&quot;&gt;CH 11&lt;br&gt;&lt;/span&gt;&lt;/font&gt;" style="text;html=1;align=center;verticalAlign=middle;resizable=0;points=[];autosize=1;strokeColor=none;fillColor=none;" vertex="1" parent="1">
          <mxGeometry x="650" y="365" width="60" height="30" as="geometry" />
        </mxCell>
        <mxCell id="4SvfXK36nhVaso6GFICK-93" value="&lt;font face=&quot;CMU Serif&quot;&gt;&lt;span style=&quot;font-size: 14px;&quot;&gt;CH 12&lt;br&gt;&lt;/span&gt;&lt;/font&gt;" style="text;html=1;align=center;verticalAlign=middle;resizable=0;points=[];autosize=1;strokeColor=none;fillColor=none;" vertex="1" parent="1">
          <mxGeometry x="730" y="365" width="60" height="30" as="geometry" />
        </mxCell>
        <mxCell id="4SvfXK36nhVaso6GFICK-94" value="&lt;font face=&quot;CMU Serif&quot;&gt;&lt;span style=&quot;font-size: 14px;&quot;&gt;CH 13&lt;br&gt;&lt;/span&gt;&lt;/font&gt;" style="text;html=1;align=center;verticalAlign=middle;resizable=0;points=[];autosize=1;strokeColor=none;fillColor=none;" vertex="1" parent="1">
          <mxGeometry x="810" y="365" width="60" height="30" as="geometry" />
        </mxCell>
        <mxCell id="4SvfXK36nhVaso6GFICK-98" value="" style="endArrow=none;html=1;rounded=0;startSize=4;endSize=4;strokeWidth=1;" edge="1" parent="1" source="4SvfXK36nhVaso6GFICK-97">
          <mxGeometry width="50" height="50" relative="1" as="geometry">
            <mxPoint x="240" y="400" as="sourcePoint" />
            <mxPoint x="880" y="400" as="targetPoint" />
          </mxGeometry>
        </mxCell>
        <mxCell id="4SvfXK36nhVaso6GFICK-99" value="" style="endArrow=none;html=1;rounded=0;startSize=4;endSize=4;strokeWidth=1;" edge="1" parent="1">
          <mxGeometry width="50" height="50" relative="1" as="geometry">
            <mxPoint x="240" y="440" as="sourcePoint" />
            <mxPoint x="880" y="440" as="targetPoint" />
          </mxGeometry>
        </mxCell>
        <mxCell id="4SvfXK36nhVaso6GFICK-100" value="" style="endArrow=none;html=1;rounded=0;startSize=4;endSize=4;strokeWidth=1;" edge="1" parent="1">
          <mxGeometry width="50" height="50" relative="1" as="geometry">
            <mxPoint x="240" y="480" as="sourcePoint" />
            <mxPoint x="880" y="480" as="targetPoint" />
          </mxGeometry>
        </mxCell>
        <mxCell id="4SvfXK36nhVaso6GFICK-101" value="" style="endArrow=none;html=1;rounded=0;startSize=4;endSize=4;strokeWidth=1;" edge="1" parent="1">
          <mxGeometry width="50" height="50" relative="1" as="geometry">
            <mxPoint x="240" y="520" as="sourcePoint" />
            <mxPoint x="880" y="520" as="targetPoint" />
          </mxGeometry>
        </mxCell>
        <mxCell id="4SvfXK36nhVaso6GFICK-102" value="&lt;font face=&quot;CMU Serif&quot;&gt;&lt;span style=&quot;font-size: 14px;&quot;&gt;CH 14&lt;br&gt;&lt;/span&gt;&lt;/font&gt;" style="text;html=1;align=center;verticalAlign=middle;resizable=0;points=[];autosize=1;strokeColor=none;fillColor=none;" vertex="1" parent="1">
          <mxGeometry x="250" y="405" width="60" height="30" as="geometry" />
        </mxCell>
        <mxCell id="4SvfXK36nhVaso6GFICK-103" value="&lt;font face=&quot;CMU Serif&quot;&gt;&lt;span style=&quot;font-size: 14px;&quot;&gt;CH 15&lt;br&gt;&lt;/span&gt;&lt;/font&gt;" style="text;html=1;align=center;verticalAlign=middle;resizable=0;points=[];autosize=1;strokeColor=none;fillColor=none;" vertex="1" parent="1">
          <mxGeometry x="331" y="405" width="60" height="30" as="geometry" />
        </mxCell>
        <mxCell id="4SvfXK36nhVaso6GFICK-104" value="&lt;font face=&quot;CMU Serif&quot;&gt;&lt;span style=&quot;font-size: 14px;&quot;&gt;CH 16&lt;br&gt;&lt;/span&gt;&lt;/font&gt;" style="text;html=1;align=center;verticalAlign=middle;resizable=0;points=[];autosize=1;strokeColor=none;fillColor=none;" vertex="1" parent="1">
          <mxGeometry x="410" y="405" width="60" height="30" as="geometry" />
        </mxCell>
        <mxCell id="4SvfXK36nhVaso6GFICK-105" value="&lt;font face=&quot;CMU Serif&quot;&gt;&lt;span style=&quot;font-size: 14px;&quot;&gt;CH 17&lt;br&gt;&lt;/span&gt;&lt;/font&gt;" style="text;html=1;align=center;verticalAlign=middle;resizable=0;points=[];autosize=1;strokeColor=none;fillColor=none;" vertex="1" parent="1">
          <mxGeometry x="490" y="405" width="60" height="30" as="geometry" />
        </mxCell>
        <mxCell id="4SvfXK36nhVaso6GFICK-106" value="&lt;font face=&quot;CMU Serif&quot;&gt;&lt;span style=&quot;font-size: 14px;&quot;&gt;CH 18&lt;br&gt;&lt;/span&gt;&lt;/font&gt;" style="text;html=1;align=center;verticalAlign=middle;resizable=0;points=[];autosize=1;strokeColor=none;fillColor=none;" vertex="1" parent="1">
          <mxGeometry x="570" y="405" width="60" height="30" as="geometry" />
        </mxCell>
        <mxCell id="4SvfXK36nhVaso6GFICK-107" value="&lt;font face=&quot;CMU Serif&quot;&gt;&lt;span style=&quot;font-size: 14px;&quot;&gt;CH 19&lt;br&gt;&lt;/span&gt;&lt;/font&gt;" style="text;html=1;align=center;verticalAlign=middle;resizable=0;points=[];autosize=1;strokeColor=none;fillColor=none;" vertex="1" parent="1">
          <mxGeometry x="650" y="405" width="60" height="30" as="geometry" />
        </mxCell>
        <mxCell id="4SvfXK36nhVaso6GFICK-108" value="&lt;font face=&quot;CMU Serif&quot;&gt;&lt;span style=&quot;font-size: 14px;&quot;&gt;CH 20&lt;br&gt;&lt;/span&gt;&lt;/font&gt;" style="text;html=1;align=center;verticalAlign=middle;resizable=0;points=[];autosize=1;strokeColor=none;fillColor=none;" vertex="1" parent="1">
          <mxGeometry x="730" y="405" width="60" height="30" as="geometry" />
        </mxCell>
        <mxCell id="4SvfXK36nhVaso6GFICK-109" value="&lt;font face=&quot;CMU Serif&quot;&gt;&lt;span style=&quot;font-size: 14px;&quot;&gt;CH 21&lt;br&gt;&lt;/span&gt;&lt;/font&gt;" style="text;html=1;align=center;verticalAlign=middle;resizable=0;points=[];autosize=1;strokeColor=none;fillColor=none;" vertex="1" parent="1">
          <mxGeometry x="810" y="405" width="60" height="30" as="geometry" />
        </mxCell>
        <mxCell id="4SvfXK36nhVaso6GFICK-110" value="&lt;font face=&quot;CMU Serif&quot;&gt;&lt;span style=&quot;font-size: 14px;&quot;&gt;CH 22&lt;br&gt;&lt;/span&gt;&lt;/font&gt;" style="text;html=1;align=center;verticalAlign=middle;resizable=0;points=[];autosize=1;strokeColor=none;fillColor=none;" vertex="1" parent="1">
          <mxGeometry x="250" y="445" width="60" height="30" as="geometry" />
        </mxCell>
        <mxCell id="4SvfXK36nhVaso6GFICK-111" value="&lt;font face=&quot;CMU Serif&quot;&gt;&lt;span style=&quot;font-size: 14px;&quot;&gt;CH 23&lt;br&gt;&lt;/span&gt;&lt;/font&gt;" style="text;html=1;align=center;verticalAlign=middle;resizable=0;points=[];autosize=1;strokeColor=none;fillColor=none;" vertex="1" parent="1">
          <mxGeometry x="330" y="445" width="60" height="30" as="geometry" />
        </mxCell>
        <mxCell id="4SvfXK36nhVaso6GFICK-112" value="&lt;font face=&quot;CMU Serif&quot;&gt;&lt;span style=&quot;font-size: 14px;&quot;&gt;CH 24&lt;br&gt;&lt;/span&gt;&lt;/font&gt;" style="text;html=1;align=center;verticalAlign=middle;resizable=0;points=[];autosize=1;strokeColor=none;fillColor=none;" vertex="1" parent="1">
          <mxGeometry x="410" y="445" width="60" height="30" as="geometry" />
        </mxCell>
        <mxCell id="4SvfXK36nhVaso6GFICK-113" value="&lt;font face=&quot;CMU Serif&quot;&gt;&lt;span style=&quot;font-size: 14px;&quot;&gt;CH 25&lt;br&gt;&lt;/span&gt;&lt;/font&gt;" style="text;html=1;align=center;verticalAlign=middle;resizable=0;points=[];autosize=1;strokeColor=none;fillColor=none;" vertex="1" parent="1">
          <mxGeometry x="490" y="445" width="60" height="30" as="geometry" />
        </mxCell>
        <mxCell id="4SvfXK36nhVaso6GFICK-114" value="&lt;font face=&quot;CMU Serif&quot;&gt;&lt;span style=&quot;font-size: 14px;&quot;&gt;CH 26&lt;br&gt;&lt;/span&gt;&lt;/font&gt;" style="text;html=1;align=center;verticalAlign=middle;resizable=0;points=[];autosize=1;strokeColor=none;fillColor=none;" vertex="1" parent="1">
          <mxGeometry x="570" y="445" width="60" height="30" as="geometry" />
        </mxCell>
        <mxCell id="4SvfXK36nhVaso6GFICK-115" value="&lt;font face=&quot;CMU Serif&quot;&gt;&lt;span style=&quot;font-size: 14px;&quot;&gt;CH 27&lt;br&gt;&lt;/span&gt;&lt;/font&gt;" style="text;html=1;align=center;verticalAlign=middle;resizable=0;points=[];autosize=1;strokeColor=none;fillColor=none;" vertex="1" parent="1">
          <mxGeometry x="650" y="445" width="60" height="30" as="geometry" />
        </mxCell>
        <mxCell id="4SvfXK36nhVaso6GFICK-116" value="&lt;font face=&quot;CMU Serif&quot;&gt;&lt;span style=&quot;font-size: 14px;&quot;&gt;CH 28&lt;br&gt;&lt;/span&gt;&lt;/font&gt;" style="text;html=1;align=center;verticalAlign=middle;resizable=0;points=[];autosize=1;strokeColor=none;fillColor=none;" vertex="1" parent="1">
          <mxGeometry x="730" y="445" width="60" height="30" as="geometry" />
        </mxCell>
        <mxCell id="4SvfXK36nhVaso6GFICK-117" value="&lt;font face=&quot;CMU Serif&quot;&gt;&lt;span style=&quot;font-size: 14px;&quot;&gt;CH 29&lt;br&gt;&lt;/span&gt;&lt;/font&gt;" style="text;html=1;align=center;verticalAlign=middle;resizable=0;points=[];autosize=1;strokeColor=none;fillColor=none;" vertex="1" parent="1">
          <mxGeometry x="810" y="445" width="60" height="30" as="geometry" />
        </mxCell>
        <mxCell id="4SvfXK36nhVaso6GFICK-118" value="&lt;font face=&quot;CMU Serif&quot;&gt;&lt;span style=&quot;font-size: 14px;&quot;&gt;CH 30&lt;br&gt;&lt;/span&gt;&lt;/font&gt;" style="text;html=1;align=center;verticalAlign=middle;resizable=0;points=[];autosize=1;strokeColor=none;fillColor=none;" vertex="1" parent="1">
          <mxGeometry x="250" y="485" width="60" height="30" as="geometry" />
        </mxCell>
        <mxCell id="4SvfXK36nhVaso6GFICK-119" value="&lt;font face=&quot;CMU Serif&quot;&gt;&lt;span style=&quot;font-size: 14px;&quot;&gt;CH 31&lt;br&gt;&lt;/span&gt;&lt;/font&gt;" style="text;html=1;align=center;verticalAlign=middle;resizable=0;points=[];autosize=1;strokeColor=none;fillColor=none;" vertex="1" parent="1">
          <mxGeometry x="325" y="485" width="60" height="30" as="geometry" />
        </mxCell>
        <mxCell id="4SvfXK36nhVaso6GFICK-120" value="&lt;font face=&quot;CMU Serif&quot;&gt;&lt;span style=&quot;font-size: 14px;&quot;&gt;CH 0&lt;br&gt;&lt;/span&gt;&lt;/font&gt;" style="text;html=1;align=center;verticalAlign=middle;resizable=0;points=[];autosize=1;strokeColor=none;fillColor=none;" vertex="1" parent="1">
          <mxGeometry x="410" y="485" width="60" height="30" as="geometry" />
        </mxCell>
        <mxCell id="4SvfXK36nhVaso6GFICK-121" value="&lt;font face=&quot;CMU Serif&quot;&gt;&lt;span style=&quot;font-size: 14px;&quot;&gt;CH 1&lt;br&gt;&lt;/span&gt;&lt;/font&gt;" style="text;html=1;align=center;verticalAlign=middle;resizable=0;points=[];autosize=1;strokeColor=none;fillColor=none;" vertex="1" parent="1">
          <mxGeometry x="490" y="485" width="60" height="30" as="geometry" />
        </mxCell>
        <mxCell id="4SvfXK36nhVaso6GFICK-122" value="&lt;font face=&quot;CMU Serif&quot;&gt;&lt;span style=&quot;font-size: 14px;&quot;&gt;CH 2&lt;br&gt;&lt;/span&gt;&lt;/font&gt;" style="text;html=1;align=center;verticalAlign=middle;resizable=0;points=[];autosize=1;strokeColor=none;fillColor=none;" vertex="1" parent="1">
          <mxGeometry x="570" y="485" width="60" height="30" as="geometry" />
        </mxCell>
        <mxCell id="4SvfXK36nhVaso6GFICK-123" value="&lt;font face=&quot;CMU Serif&quot;&gt;&lt;span style=&quot;font-size: 14px;&quot;&gt;CH 3&lt;br&gt;&lt;/span&gt;&lt;/font&gt;" style="text;html=1;align=center;verticalAlign=middle;resizable=0;points=[];autosize=1;strokeColor=none;fillColor=none;" vertex="1" parent="1">
          <mxGeometry x="650" y="485" width="60" height="30" as="geometry" />
        </mxCell>
        <mxCell id="4SvfXK36nhVaso6GFICK-124" value="&lt;font face=&quot;CMU Serif&quot;&gt;&lt;span style=&quot;font-size: 14px;&quot;&gt;CH 4&lt;br&gt;&lt;/span&gt;&lt;/font&gt;" style="text;html=1;align=center;verticalAlign=middle;resizable=0;points=[];autosize=1;strokeColor=none;fillColor=none;" vertex="1" parent="1">
          <mxGeometry x="730" y="485" width="60" height="30" as="geometry" />
        </mxCell>
        <mxCell id="4SvfXK36nhVaso6GFICK-125" value="&lt;font face=&quot;CMU Serif&quot;&gt;&lt;span style=&quot;font-size: 14px;&quot;&gt;CH 5&lt;br&gt;&lt;/span&gt;&lt;/font&gt;" style="text;html=1;align=center;verticalAlign=middle;resizable=0;points=[];autosize=1;strokeColor=none;fillColor=none;" vertex="1" parent="1">
          <mxGeometry x="810" y="485" width="60" height="30" as="geometry" />
        </mxCell>
        <mxCell id="4SvfXK36nhVaso6GFICK-126" value="&lt;font face=&quot;CMU Serif&quot;&gt;&lt;span style=&quot;font-size: 14px;&quot;&gt;CH 6&lt;br&gt;&lt;/span&gt;&lt;/font&gt;" style="text;html=1;align=center;verticalAlign=middle;resizable=0;points=[];autosize=1;strokeColor=none;fillColor=none;" vertex="1" parent="1">
          <mxGeometry x="250" y="525" width="60" height="30" as="geometry" />
        </mxCell>
        <mxCell id="4SvfXK36nhVaso6GFICK-127" value="&lt;font face=&quot;CMU Serif&quot;&gt;&lt;span style=&quot;font-size: 14px;&quot;&gt;CH 7&lt;br&gt;&lt;/span&gt;&lt;/font&gt;" style="text;html=1;align=center;verticalAlign=middle;resizable=0;points=[];autosize=1;strokeColor=none;fillColor=none;" vertex="1" parent="1">
          <mxGeometry x="330" y="525" width="60" height="30" as="geometry" />
        </mxCell>
        <mxCell id="4SvfXK36nhVaso6GFICK-128" value="&lt;font face=&quot;CMU Serif&quot;&gt;&lt;span style=&quot;font-size: 14px;&quot;&gt;CH 8&lt;br&gt;&lt;/span&gt;&lt;/font&gt;" style="text;html=1;align=center;verticalAlign=middle;resizable=0;points=[];autosize=1;strokeColor=none;fillColor=none;" vertex="1" parent="1">
          <mxGeometry x="410" y="525" width="60" height="30" as="geometry" />
        </mxCell>
        <mxCell id="4SvfXK36nhVaso6GFICK-129" value="&lt;font face=&quot;CMU Serif&quot;&gt;&lt;span style=&quot;font-size: 14px;&quot;&gt;CH 9&lt;br&gt;&lt;/span&gt;&lt;/font&gt;" style="text;html=1;align=center;verticalAlign=middle;resizable=0;points=[];autosize=1;strokeColor=none;fillColor=none;" vertex="1" parent="1">
          <mxGeometry x="490" y="525" width="60" height="30" as="geometry" />
        </mxCell>
        <mxCell id="4SvfXK36nhVaso6GFICK-130" value="&lt;font face=&quot;CMU Serif&quot;&gt;&lt;span style=&quot;font-size: 14px;&quot;&gt;CH 10&lt;br&gt;&lt;/span&gt;&lt;/font&gt;" style="text;html=1;align=center;verticalAlign=middle;resizable=0;points=[];autosize=1;strokeColor=none;fillColor=none;" vertex="1" parent="1">
          <mxGeometry x="570" y="525" width="60" height="30" as="geometry" />
        </mxCell>
        <mxCell id="4SvfXK36nhVaso6GFICK-131" value="&lt;font face=&quot;CMU Serif&quot;&gt;&lt;span style=&quot;font-size: 14px;&quot;&gt;CH 11&lt;br&gt;&lt;/span&gt;&lt;/font&gt;" style="text;html=1;align=center;verticalAlign=middle;resizable=0;points=[];autosize=1;strokeColor=none;fillColor=none;" vertex="1" parent="1">
          <mxGeometry x="650" y="525" width="60" height="30" as="geometry" />
        </mxCell>
        <mxCell id="4SvfXK36nhVaso6GFICK-132" value="&lt;font face=&quot;CMU Serif&quot;&gt;&lt;span style=&quot;font-size: 14px;&quot;&gt;CH 12&lt;br&gt;&lt;/span&gt;&lt;/font&gt;" style="text;html=1;align=center;verticalAlign=middle;resizable=0;points=[];autosize=1;strokeColor=none;fillColor=none;" vertex="1" parent="1">
          <mxGeometry x="730" y="525" width="60" height="30" as="geometry" />
        </mxCell>
        <mxCell id="4SvfXK36nhVaso6GFICK-133" value="&lt;font face=&quot;CMU Serif&quot;&gt;&lt;span style=&quot;font-size: 14px;&quot;&gt;CH 13&lt;br&gt;&lt;/span&gt;&lt;/font&gt;" style="text;html=1;align=center;verticalAlign=middle;resizable=0;points=[];autosize=1;strokeColor=none;fillColor=none;" vertex="1" parent="1">
          <mxGeometry x="810" y="525" width="60" height="30" as="geometry" />
        </mxCell>
        <mxCell id="4SvfXK36nhVaso6GFICK-134" value="" style="endArrow=none;html=1;rounded=0;startSize=4;endSize=4;strokeWidth=1;entryX=1;entryY=0.5;entryDx=0;entryDy=0;" edge="1" parent="1">
          <mxGeometry width="50" height="50" relative="1" as="geometry">
            <mxPoint x="240" y="400" as="sourcePoint" />
            <mxPoint x="880" y="400" as="targetPoint" />
          </mxGeometry>
        </mxCell>
        <mxCell id="4SvfXK36nhVaso6GFICK-136" value="" style="endArrow=none;html=1;rounded=0;startSize=4;endSize=4;strokeWidth=1;" edge="1" parent="1">
          <mxGeometry width="50" height="50" relative="1" as="geometry">
            <mxPoint x="240" y="800" as="sourcePoint" />
            <mxPoint x="240" y="120" as="targetPoint" />
          </mxGeometry>
        </mxCell>
        <mxCell id="4SvfXK36nhVaso6GFICK-137" value="" style="endArrow=none;html=1;rounded=0;startSize=4;endSize=4;strokeWidth=1;" edge="1" parent="1">
          <mxGeometry width="50" height="50" relative="1" as="geometry">
            <mxPoint x="880" y="800" as="sourcePoint" />
            <mxPoint x="880" y="120" as="targetPoint" />
          </mxGeometry>
        </mxCell>
        <mxCell id="4SvfXK36nhVaso6GFICK-153" value="&lt;font face=&quot;CMU Serif&quot;&gt;&lt;span style=&quot;font-size: 14px;&quot;&gt;Packet Index [8 - 11]&lt;br&gt;&lt;/span&gt;&lt;/font&gt;" style="text;html=1;align=center;verticalAlign=middle;resizable=0;points=[];autosize=1;strokeColor=none;fillColor=none;imageWidth=30;imageHeight=30;" vertex="1" parent="1">
          <mxGeometry x="725" y="645" width="150" height="30" as="geometry" />
        </mxCell>
        <mxCell id="4SvfXK36nhVaso6GFICK-155" value="&lt;font face=&quot;CMU Serif&quot;&gt;&lt;span style=&quot;font-size: 14px;&quot;&gt;Timestamp [12 - 19]&lt;br&gt;&lt;/span&gt;&lt;/font&gt;" style="text;html=1;align=center;verticalAlign=middle;resizable=0;points=[];autosize=1;strokeColor=none;fillColor=none;" vertex="1" parent="1">
          <mxGeometry x="325" y="685" width="150" height="30" as="geometry" />
        </mxCell>
        <mxCell id="4SvfXK36nhVaso6GFICK-156" value="&lt;span style=&quot;font-size: 14px;&quot;&gt;&lt;font face=&quot;CMU Serif&quot;&gt;Magic Sequence [0 - 7] &lt;/font&gt;&lt;font face=&quot;Courier New&quot;&gt;&#39;HERON666&#39;&lt;/font&gt;&lt;br&gt;&lt;/span&gt;" style="text;html=1;align=center;verticalAlign=middle;resizable=0;points=[];autosize=1;strokeColor=none;fillColor=none;imageWidth=30;imageHeight=30;" vertex="1" parent="1">
          <mxGeometry x="435" y="645" width="250" height="30" as="geometry" />
        </mxCell>
        <mxCell id="4SvfXK36nhVaso6GFICK-159" value="" style="endArrow=none;html=1;rounded=0;startSize=4;endSize=4;strokeWidth=1;" edge="1" parent="1">
          <mxGeometry width="50" height="50" relative="1" as="geometry">
            <mxPoint x="240" y="560" as="sourcePoint" />
            <mxPoint x="880" y="560" as="targetPoint" />
          </mxGeometry>
        </mxCell>
        <mxCell id="4SvfXK36nhVaso6GFICK-161" value="" style="endArrow=none;html=1;rounded=0;" edge="1" parent="1" source="4SvfXK36nhVaso6GFICK-221">
          <mxGeometry width="50" height="50" relative="1" as="geometry">
            <mxPoint x="880" y="600" as="sourcePoint" />
            <mxPoint x="240" y="600" as="targetPoint" />
          </mxGeometry>
        </mxCell>
        <mxCell id="4SvfXK36nhVaso6GFICK-162" value="" style="endArrow=none;html=1;rounded=0;" edge="1" parent="1">
          <mxGeometry width="50" height="50" relative="1" as="geometry">
            <mxPoint x="880" y="640" as="sourcePoint" />
            <mxPoint x="240" y="640" as="targetPoint" />
          </mxGeometry>
        </mxCell>
        <mxCell id="4SvfXK36nhVaso6GFICK-163" value="" style="endArrow=none;html=1;rounded=0;" edge="1" parent="1">
          <mxGeometry width="50" height="50" relative="1" as="geometry">
            <mxPoint x="880" y="680" as="sourcePoint" />
            <mxPoint x="240" y="680" as="targetPoint" />
          </mxGeometry>
        </mxCell>
        <mxCell id="4SvfXK36nhVaso6GFICK-164" value="" style="endArrow=none;html=1;rounded=0;" edge="1" parent="1">
          <mxGeometry width="50" height="50" relative="1" as="geometry">
            <mxPoint x="880" y="720" as="sourcePoint" />
            <mxPoint x="240" y="720" as="targetPoint" />
          </mxGeometry>
        </mxCell>
        <mxCell id="4SvfXK36nhVaso6GFICK-165" value="" style="endArrow=none;html=1;rounded=0;" edge="1" parent="1">
          <mxGeometry width="50" height="50" relative="1" as="geometry">
            <mxPoint x="880" y="760" as="sourcePoint" />
            <mxPoint x="240" y="760" as="targetPoint" />
          </mxGeometry>
        </mxCell>
        <mxCell id="4SvfXK36nhVaso6GFICK-167" value="" style="endArrow=none;html=1;rounded=0;startSize=4;endSize=4;strokeWidth=1;" edge="1" parent="1">
          <mxGeometry width="50" height="50" relative="1" as="geometry">
            <mxPoint x="240" y="760" as="sourcePoint" />
            <mxPoint x="880" y="760" as="targetPoint" />
          </mxGeometry>
        </mxCell>
        <mxCell id="4SvfXK36nhVaso6GFICK-170" value="&lt;font face=&quot;CMU Serif&quot;&gt;&lt;span style=&quot;font-size: 14px;&quot;&gt;CH 0&lt;br&gt;&lt;/span&gt;&lt;/font&gt;" style="text;html=1;align=center;verticalAlign=middle;resizable=0;points=[];autosize=1;strokeColor=none;fillColor=none;" vertex="1" parent="1">
          <mxGeometry x="570" y="685" width="60" height="30" as="geometry" />
        </mxCell>
        <mxCell id="4SvfXK36nhVaso6GFICK-171" value="&lt;font face=&quot;CMU Serif&quot;&gt;&lt;span style=&quot;font-size: 14px;&quot;&gt;CH 1&lt;br&gt;&lt;/span&gt;&lt;/font&gt;" style="text;html=1;align=center;verticalAlign=middle;resizable=0;points=[];autosize=1;strokeColor=none;fillColor=none;" vertex="1" parent="1">
          <mxGeometry x="650" y="685" width="60" height="30" as="geometry" />
        </mxCell>
        <mxCell id="4SvfXK36nhVaso6GFICK-172" value="&lt;font face=&quot;CMU Serif&quot;&gt;&lt;span style=&quot;font-size: 14px;&quot;&gt;CH 2&lt;br&gt;&lt;/span&gt;&lt;/font&gt;" style="text;html=1;align=center;verticalAlign=middle;resizable=0;points=[];autosize=1;strokeColor=none;fillColor=none;" vertex="1" parent="1">
          <mxGeometry x="730" y="685" width="60" height="30" as="geometry" />
        </mxCell>
        <mxCell id="4SvfXK36nhVaso6GFICK-173" value="&lt;font face=&quot;CMU Serif&quot;&gt;&lt;span style=&quot;font-size: 14px;&quot;&gt;CH 3&lt;br&gt;&lt;/span&gt;&lt;/font&gt;" style="text;html=1;align=center;verticalAlign=middle;resizable=0;points=[];autosize=1;strokeColor=none;fillColor=none;" vertex="1" parent="1">
          <mxGeometry x="810" y="685" width="60" height="30" as="geometry" />
        </mxCell>
        <mxCell id="4SvfXK36nhVaso6GFICK-174" value="&lt;font face=&quot;CMU Serif&quot;&gt;&lt;span style=&quot;font-size: 14px;&quot;&gt;CH 4&lt;br&gt;&lt;/span&gt;&lt;/font&gt;" style="text;html=1;align=center;verticalAlign=middle;resizable=0;points=[];autosize=1;strokeColor=none;fillColor=none;" vertex="1" parent="1">
          <mxGeometry x="250" y="725" width="60" height="30" as="geometry" />
        </mxCell>
        <mxCell id="4SvfXK36nhVaso6GFICK-175" value="&lt;font face=&quot;CMU Serif&quot;&gt;&lt;span style=&quot;font-size: 14px;&quot;&gt;CH 5&lt;br&gt;&lt;/span&gt;&lt;/font&gt;" style="text;html=1;align=center;verticalAlign=middle;resizable=0;points=[];autosize=1;strokeColor=none;fillColor=none;" vertex="1" parent="1">
          <mxGeometry x="330" y="725" width="60" height="30" as="geometry" />
        </mxCell>
        <mxCell id="4SvfXK36nhVaso6GFICK-176" value="&lt;font face=&quot;CMU Serif&quot;&gt;&lt;span style=&quot;font-size: 14px;&quot;&gt;CH 6&lt;br&gt;&lt;/span&gt;&lt;/font&gt;" style="text;html=1;align=center;verticalAlign=middle;resizable=0;points=[];autosize=1;strokeColor=none;fillColor=none;" vertex="1" parent="1">
          <mxGeometry x="410" y="725" width="60" height="30" as="geometry" />
        </mxCell>
        <mxCell id="4SvfXK36nhVaso6GFICK-177" value="&lt;font face=&quot;CMU Serif&quot;&gt;&lt;span style=&quot;font-size: 14px;&quot;&gt;CH 7&lt;br&gt;&lt;/span&gt;&lt;/font&gt;" style="text;html=1;align=center;verticalAlign=middle;resizable=0;points=[];autosize=1;strokeColor=none;fillColor=none;" vertex="1" parent="1">
          <mxGeometry x="490" y="725" width="60" height="30" as="geometry" />
        </mxCell>
        <mxCell id="4SvfXK36nhVaso6GFICK-178" value="&lt;font face=&quot;CMU Serif&quot;&gt;&lt;span style=&quot;font-size: 14px;&quot;&gt;CH 8&lt;br&gt;&lt;/span&gt;&lt;/font&gt;" style="text;html=1;align=center;verticalAlign=middle;resizable=0;points=[];autosize=1;strokeColor=none;fillColor=none;" vertex="1" parent="1">
          <mxGeometry x="570" y="725" width="60" height="30" as="geometry" />
        </mxCell>
        <mxCell id="4SvfXK36nhVaso6GFICK-179" value="&lt;font face=&quot;CMU Serif&quot;&gt;&lt;span style=&quot;font-size: 14px;&quot;&gt;CH 9&lt;br&gt;&lt;/span&gt;&lt;/font&gt;" style="text;html=1;align=center;verticalAlign=middle;resizable=0;points=[];autosize=1;strokeColor=none;fillColor=none;" vertex="1" parent="1">
          <mxGeometry x="650" y="725" width="60" height="30" as="geometry" />
        </mxCell>
        <mxCell id="4SvfXK36nhVaso6GFICK-180" value="&lt;font face=&quot;CMU Serif&quot;&gt;&lt;span style=&quot;font-size: 14px;&quot;&gt;CH 10&lt;br&gt;&lt;/span&gt;&lt;/font&gt;" style="text;html=1;align=center;verticalAlign=middle;resizable=0;points=[];autosize=1;strokeColor=none;fillColor=none;" vertex="1" parent="1">
          <mxGeometry x="730" y="725" width="60" height="30" as="geometry" />
        </mxCell>
        <mxCell id="4SvfXK36nhVaso6GFICK-181" value="&lt;font face=&quot;CMU Serif&quot;&gt;&lt;span style=&quot;font-size: 14px;&quot;&gt;CH 11&lt;br&gt;&lt;/span&gt;&lt;/font&gt;" style="text;html=1;align=center;verticalAlign=middle;resizable=0;points=[];autosize=1;strokeColor=none;fillColor=none;" vertex="1" parent="1">
          <mxGeometry x="810" y="725" width="60" height="30" as="geometry" />
        </mxCell>
        <mxCell id="4SvfXK36nhVaso6GFICK-182" value="&lt;font face=&quot;CMU Serif&quot;&gt;&lt;span style=&quot;font-size: 14px;&quot;&gt;CH 12&lt;br&gt;&lt;/span&gt;&lt;/font&gt;" style="text;html=1;align=center;verticalAlign=middle;resizable=0;points=[];autosize=1;strokeColor=none;fillColor=none;" vertex="1" parent="1">
          <mxGeometry x="250" y="765" width="60" height="30" as="geometry" />
        </mxCell>
        <mxCell id="4SvfXK36nhVaso6GFICK-183" value="&lt;font face=&quot;CMU Serif&quot;&gt;&lt;span style=&quot;font-size: 14px;&quot;&gt;CH 13&lt;br&gt;&lt;/span&gt;&lt;/font&gt;" style="text;html=1;align=center;verticalAlign=middle;resizable=0;points=[];autosize=1;strokeColor=none;fillColor=none;" vertex="1" parent="1">
          <mxGeometry x="331" y="765" width="60" height="30" as="geometry" />
        </mxCell>
        <mxCell id="4SvfXK36nhVaso6GFICK-184" value="&lt;font face=&quot;CMU Serif&quot;&gt;&lt;span style=&quot;font-size: 14px;&quot;&gt;CH 14&lt;br&gt;&lt;/span&gt;&lt;/font&gt;" style="text;html=1;align=center;verticalAlign=middle;resizable=0;points=[];autosize=1;strokeColor=none;fillColor=none;" vertex="1" parent="1">
          <mxGeometry x="410" y="765" width="60" height="30" as="geometry" />
        </mxCell>
        <mxCell id="4SvfXK36nhVaso6GFICK-185" value="&lt;font face=&quot;CMU Serif&quot;&gt;&lt;span style=&quot;font-size: 14px;&quot;&gt;CH 15&lt;br&gt;&lt;/span&gt;&lt;/font&gt;" style="text;html=1;align=center;verticalAlign=middle;resizable=0;points=[];autosize=1;strokeColor=none;fillColor=none;" vertex="1" parent="1">
          <mxGeometry x="490" y="765" width="60" height="30" as="geometry" />
        </mxCell>
        <mxCell id="4SvfXK36nhVaso6GFICK-186" value="&lt;font face=&quot;CMU Serif&quot;&gt;&lt;span style=&quot;font-size: 14px;&quot;&gt;CH 16&lt;br&gt;&lt;/span&gt;&lt;/font&gt;" style="text;html=1;align=center;verticalAlign=middle;resizable=0;points=[];autosize=1;strokeColor=none;fillColor=none;" vertex="1" parent="1">
          <mxGeometry x="570" y="765" width="60" height="30" as="geometry" />
        </mxCell>
        <mxCell id="4SvfXK36nhVaso6GFICK-187" value="&lt;font face=&quot;CMU Serif&quot;&gt;&lt;span style=&quot;font-size: 14px;&quot;&gt;CH 17&lt;br&gt;&lt;/span&gt;&lt;/font&gt;" style="text;html=1;align=center;verticalAlign=middle;resizable=0;points=[];autosize=1;strokeColor=none;fillColor=none;" vertex="1" parent="1">
          <mxGeometry x="650" y="765" width="60" height="30" as="geometry" />
        </mxCell>
        <mxCell id="4SvfXK36nhVaso6GFICK-188" value="&lt;font face=&quot;CMU Serif&quot;&gt;&lt;span style=&quot;font-size: 14px;&quot;&gt;CH 18&lt;br&gt;&lt;/span&gt;&lt;/font&gt;" style="text;html=1;align=center;verticalAlign=middle;resizable=0;points=[];autosize=1;strokeColor=none;fillColor=none;" vertex="1" parent="1">
          <mxGeometry x="730" y="765" width="60" height="30" as="geometry" />
        </mxCell>
        <mxCell id="4SvfXK36nhVaso6GFICK-189" value="&lt;font face=&quot;CMU Serif&quot;&gt;&lt;span style=&quot;font-size: 14px;&quot;&gt;CH 19&lt;br&gt;&lt;/span&gt;&lt;/font&gt;" style="text;html=1;align=center;verticalAlign=middle;resizable=0;points=[];autosize=1;strokeColor=none;fillColor=none;" vertex="1" parent="1">
          <mxGeometry x="810" y="765" width="60" height="30" as="geometry" />
        </mxCell>
        <mxCell id="4SvfXK36nhVaso6GFICK-193" value="" style="endArrow=none;html=1;rounded=0;" edge="1" parent="1">
          <mxGeometry width="50" height="50" relative="1" as="geometry">
            <mxPoint x="640" y="680" as="sourcePoint" />
            <mxPoint x="640" y="800" as="targetPoint" />
          </mxGeometry>
        </mxCell>
        <mxCell id="4SvfXK36nhVaso6GFICK-194" value="" style="endArrow=none;html=1;rounded=0;" edge="1" parent="1">
          <mxGeometry width="50" height="50" relative="1" as="geometry">
            <mxPoint x="800" y="680" as="sourcePoint" />
            <mxPoint x="800" y="800" as="targetPoint" />
          </mxGeometry>
        </mxCell>
        <mxCell id="4SvfXK36nhVaso6GFICK-195" value="" style="endArrow=none;html=1;rounded=0;" edge="1" parent="1">
          <mxGeometry width="50" height="50" relative="1" as="geometry">
            <mxPoint x="320" y="720" as="sourcePoint" />
            <mxPoint x="320" y="800" as="targetPoint" />
          </mxGeometry>
        </mxCell>
        <mxCell id="4SvfXK36nhVaso6GFICK-196" value="" style="endArrow=none;html=1;rounded=0;startSize=4;endSize=4;strokeWidth=1;" edge="1" parent="1">
          <mxGeometry width="50" height="50" relative="1" as="geometry">
            <mxPoint x="240" y="120" as="sourcePoint" />
            <mxPoint x="880" y="120" as="targetPoint" />
          </mxGeometry>
        </mxCell>
        <mxCell id="4SvfXK36nhVaso6GFICK-199" value="" style="endArrow=none;html=1;rounded=0;startSize=4;endSize=4;strokeWidth=1;" edge="1" parent="1">
          <mxGeometry width="50" height="50" relative="1" as="geometry">
            <mxPoint x="880" y="560" as="sourcePoint" />
            <mxPoint x="880" y="560" as="targetPoint" />
          </mxGeometry>
        </mxCell>
        <mxCell id="4SvfXK36nhVaso6GFICK-200" value="&lt;font face=&quot;CMU Serif&quot;&gt;&lt;span style=&quot;font-size: 14px;&quot;&gt;CH 14&lt;br&gt;&lt;/span&gt;&lt;/font&gt;" style="text;html=1;align=center;verticalAlign=middle;resizable=0;points=[];autosize=1;strokeColor=none;fillColor=none;" vertex="1" parent="1">
          <mxGeometry x="250" y="565" width="60" height="30" as="geometry" />
        </mxCell>
        <mxCell id="4SvfXK36nhVaso6GFICK-201" value="&lt;font face=&quot;CMU Serif&quot;&gt;&lt;span style=&quot;font-size: 14px;&quot;&gt;CH 15&lt;br&gt;&lt;/span&gt;&lt;/font&gt;" style="text;html=1;align=center;verticalAlign=middle;resizable=0;points=[];autosize=1;strokeColor=none;fillColor=none;" vertex="1" parent="1">
          <mxGeometry x="331" y="565" width="60" height="30" as="geometry" />
        </mxCell>
        <mxCell id="4SvfXK36nhVaso6GFICK-202" value="&lt;font face=&quot;CMU Serif&quot;&gt;&lt;span style=&quot;font-size: 14px;&quot;&gt;CH 16&lt;br&gt;&lt;/span&gt;&lt;/font&gt;" style="text;html=1;align=center;verticalAlign=middle;resizable=0;points=[];autosize=1;strokeColor=none;fillColor=none;" vertex="1" parent="1">
          <mxGeometry x="410" y="565" width="60" height="30" as="geometry" />
        </mxCell>
        <mxCell id="4SvfXK36nhVaso6GFICK-203" value="&lt;font face=&quot;CMU Serif&quot;&gt;&lt;span style=&quot;font-size: 14px;&quot;&gt;CH 17&lt;br&gt;&lt;/span&gt;&lt;/font&gt;" style="text;html=1;align=center;verticalAlign=middle;resizable=0;points=[];autosize=1;strokeColor=none;fillColor=none;" vertex="1" parent="1">
          <mxGeometry x="490" y="565" width="60" height="30" as="geometry" />
        </mxCell>
        <mxCell id="4SvfXK36nhVaso6GFICK-204" value="&lt;font face=&quot;CMU Serif&quot;&gt;&lt;span style=&quot;font-size: 14px;&quot;&gt;CH 18&lt;br&gt;&lt;/span&gt;&lt;/font&gt;" style="text;html=1;align=center;verticalAlign=middle;resizable=0;points=[];autosize=1;strokeColor=none;fillColor=none;" vertex="1" parent="1">
          <mxGeometry x="570" y="565" width="60" height="30" as="geometry" />
        </mxCell>
        <mxCell id="4SvfXK36nhVaso6GFICK-205" value="&lt;font face=&quot;CMU Serif&quot;&gt;&lt;span style=&quot;font-size: 14px;&quot;&gt;CH 19&lt;br&gt;&lt;/span&gt;&lt;/font&gt;" style="text;html=1;align=center;verticalAlign=middle;resizable=0;points=[];autosize=1;strokeColor=none;fillColor=none;" vertex="1" parent="1">
          <mxGeometry x="650" y="565" width="60" height="30" as="geometry" />
        </mxCell>
        <mxCell id="4SvfXK36nhVaso6GFICK-206" value="&lt;font face=&quot;CMU Serif&quot;&gt;&lt;span style=&quot;font-size: 14px;&quot;&gt;CH 20&lt;br&gt;&lt;/span&gt;&lt;/font&gt;" style="text;html=1;align=center;verticalAlign=middle;resizable=0;points=[];autosize=1;strokeColor=none;fillColor=none;" vertex="1" parent="1">
          <mxGeometry x="730" y="565" width="60" height="30" as="geometry" />
        </mxCell>
        <mxCell id="4SvfXK36nhVaso6GFICK-207" value="&lt;font face=&quot;CMU Serif&quot;&gt;&lt;span style=&quot;font-size: 14px;&quot;&gt;CH 21&lt;br&gt;&lt;/span&gt;&lt;/font&gt;" style="text;html=1;align=center;verticalAlign=middle;resizable=0;points=[];autosize=1;strokeColor=none;fillColor=none;" vertex="1" parent="1">
          <mxGeometry x="810" y="565" width="60" height="30" as="geometry" />
        </mxCell>
        <mxCell id="4SvfXK36nhVaso6GFICK-208" value="&lt;font face=&quot;CMU Serif&quot;&gt;&lt;span style=&quot;font-size: 14px;&quot;&gt;CH 22&lt;br&gt;&lt;/span&gt;&lt;/font&gt;" style="text;html=1;align=center;verticalAlign=middle;resizable=0;points=[];autosize=1;strokeColor=none;fillColor=none;" vertex="1" parent="1">
          <mxGeometry x="250" y="605" width="60" height="30" as="geometry" />
        </mxCell>
        <mxCell id="4SvfXK36nhVaso6GFICK-209" value="&lt;font face=&quot;CMU Serif&quot;&gt;&lt;span style=&quot;font-size: 14px;&quot;&gt;CH 23&lt;br&gt;&lt;/span&gt;&lt;/font&gt;" style="text;html=1;align=center;verticalAlign=middle;resizable=0;points=[];autosize=1;strokeColor=none;fillColor=none;" vertex="1" parent="1">
          <mxGeometry x="330" y="605" width="60" height="30" as="geometry" />
        </mxCell>
        <mxCell id="4SvfXK36nhVaso6GFICK-210" value="&lt;font face=&quot;CMU Serif&quot;&gt;&lt;span style=&quot;font-size: 14px;&quot;&gt;CH 24&lt;br&gt;&lt;/span&gt;&lt;/font&gt;" style="text;html=1;align=center;verticalAlign=middle;resizable=0;points=[];autosize=1;strokeColor=none;fillColor=none;" vertex="1" parent="1">
          <mxGeometry x="410" y="605" width="60" height="30" as="geometry" />
        </mxCell>
        <mxCell id="4SvfXK36nhVaso6GFICK-211" value="&lt;font face=&quot;CMU Serif&quot;&gt;&lt;span style=&quot;font-size: 14px;&quot;&gt;CH 25&lt;br&gt;&lt;/span&gt;&lt;/font&gt;" style="text;html=1;align=center;verticalAlign=middle;resizable=0;points=[];autosize=1;strokeColor=none;fillColor=none;" vertex="1" parent="1">
          <mxGeometry x="490" y="605" width="60" height="30" as="geometry" />
        </mxCell>
        <mxCell id="4SvfXK36nhVaso6GFICK-212" value="&lt;font face=&quot;CMU Serif&quot;&gt;&lt;span style=&quot;font-size: 14px;&quot;&gt;CH 26&lt;br&gt;&lt;/span&gt;&lt;/font&gt;" style="text;html=1;align=center;verticalAlign=middle;resizable=0;points=[];autosize=1;strokeColor=none;fillColor=none;" vertex="1" parent="1">
          <mxGeometry x="570" y="605" width="60" height="30" as="geometry" />
        </mxCell>
        <mxCell id="4SvfXK36nhVaso6GFICK-213" value="&lt;font face=&quot;CMU Serif&quot;&gt;&lt;span style=&quot;font-size: 14px;&quot;&gt;CH 27&lt;br&gt;&lt;/span&gt;&lt;/font&gt;" style="text;html=1;align=center;verticalAlign=middle;resizable=0;points=[];autosize=1;strokeColor=none;fillColor=none;" vertex="1" parent="1">
          <mxGeometry x="650" y="605" width="60" height="30" as="geometry" />
        </mxCell>
        <mxCell id="4SvfXK36nhVaso6GFICK-214" value="&lt;font face=&quot;CMU Serif&quot;&gt;&lt;span style=&quot;font-size: 14px;&quot;&gt;CH 28&lt;br&gt;&lt;/span&gt;&lt;/font&gt;" style="text;html=1;align=center;verticalAlign=middle;resizable=0;points=[];autosize=1;strokeColor=none;fillColor=none;" vertex="1" parent="1">
          <mxGeometry x="730" y="605" width="60" height="30" as="geometry" />
        </mxCell>
        <mxCell id="4SvfXK36nhVaso6GFICK-215" value="&lt;font face=&quot;CMU Serif&quot;&gt;&lt;span style=&quot;font-size: 14px;&quot;&gt;CH 29&lt;br&gt;&lt;/span&gt;&lt;/font&gt;" style="text;html=1;align=center;verticalAlign=middle;resizable=0;points=[];autosize=1;strokeColor=none;fillColor=none;" vertex="1" parent="1">
          <mxGeometry x="810" y="605" width="60" height="30" as="geometry" />
        </mxCell>
        <mxCell id="4SvfXK36nhVaso6GFICK-216" value="&lt;font face=&quot;CMU Serif&quot;&gt;&lt;span style=&quot;font-size: 14px;&quot;&gt;CH 30&lt;br&gt;&lt;/span&gt;&lt;/font&gt;" style="text;html=1;align=center;verticalAlign=middle;resizable=0;points=[];autosize=1;strokeColor=none;fillColor=none;" vertex="1" parent="1">
          <mxGeometry x="250" y="645" width="60" height="30" as="geometry" />
        </mxCell>
        <mxCell id="4SvfXK36nhVaso6GFICK-217" value="&lt;font face=&quot;CMU Serif&quot;&gt;&lt;span style=&quot;font-size: 14px;&quot;&gt;CH 31&lt;br&gt;&lt;/span&gt;&lt;/font&gt;" style="text;html=1;align=center;verticalAlign=middle;resizable=0;points=[];autosize=1;strokeColor=none;fillColor=none;" vertex="1" parent="1">
          <mxGeometry x="325" y="645" width="60" height="30" as="geometry" />
        </mxCell>
        <mxCell id="4SvfXK36nhVaso6GFICK-218" value="" style="endArrow=none;html=1;rounded=0;startSize=4;endSize=4;strokeWidth=1;entryX=1;entryY=0.5;entryDx=0;entryDy=0;" edge="1" parent="1">
          <mxGeometry width="50" height="50" relative="1" as="geometry">
            <mxPoint x="240" y="560" as="sourcePoint" />
            <mxPoint x="880" y="560" as="targetPoint" />
          </mxGeometry>
        </mxCell>
        <mxCell id="4SvfXK36nhVaso6GFICK-158" value="" style="group" vertex="1" connectable="0" parent="1">
          <mxGeometry x="220" y="553" width="680" height="26" as="geometry" />
        </mxCell>
        <mxCell id="4SvfXK36nhVaso6GFICK-143" value="" style="pointerEvents=1;verticalLabelPosition=bottom;shadow=0;dashed=0;align=center;html=1;verticalAlign=top;shape=mxgraph.electrical.waveforms.sine_wave;rotation=0;strokeWidth=6;strokeColor=#FFFFFF;" vertex="1" parent="4SvfXK36nhVaso6GFICK-158">
          <mxGeometry y="3" width="680" height="20" as="geometry" />
        </mxCell>
        <mxCell id="4SvfXK36nhVaso6GFICK-145" value="" style="pointerEvents=1;verticalLabelPosition=bottom;shadow=0;dashed=0;align=center;html=1;verticalAlign=top;shape=mxgraph.electrical.waveforms.sine_wave;rotation=0;container=0;" vertex="1" parent="4SvfXK36nhVaso6GFICK-158">
          <mxGeometry width="680" height="20" as="geometry" />
        </mxCell>
        <mxCell id="4SvfXK36nhVaso6GFICK-148" value="" style="pointerEvents=1;verticalLabelPosition=bottom;shadow=0;dashed=0;align=center;html=1;verticalAlign=top;shape=mxgraph.electrical.waveforms.sine_wave;rotation=0;container=0;" vertex="1" parent="4SvfXK36nhVaso6GFICK-158">
          <mxGeometry y="6" width="680" height="20" as="geometry" />
        </mxCell>
        <mxCell id="4SvfXK36nhVaso6GFICK-222" value="" style="endArrow=none;html=1;rounded=0;" edge="1" parent="1">
          <mxGeometry width="50" height="50" relative="1" as="geometry">
            <mxPoint x="880" y="600" as="sourcePoint" />
            <mxPoint x="240" y="600" as="targetPoint" />
          </mxGeometry>
        </mxCell>
        <mxCell id="4SvfXK36nhVaso6GFICK-223" value="" style="endArrow=none;html=1;rounded=0;" edge="1" parent="1">
          <mxGeometry width="50" height="50" relative="1" as="geometry">
            <mxPoint x="560" y="680" as="sourcePoint" />
            <mxPoint x="560" y="800" as="targetPoint" />
          </mxGeometry>
        </mxCell>
        <mxCell id="4SvfXK36nhVaso6GFICK-224" value="" style="endArrow=none;html=1;rounded=0;" edge="1" parent="1">
          <mxGeometry width="50" height="50" relative="1" as="geometry">
            <mxPoint x="400" y="720" as="sourcePoint" />
            <mxPoint x="400" y="800" as="targetPoint" />
          </mxGeometry>
        </mxCell>
        <mxCell id="4SvfXK36nhVaso6GFICK-225" value="" style="endArrow=none;html=1;rounded=0;" edge="1" parent="1">
          <mxGeometry width="50" height="50" relative="1" as="geometry">
            <mxPoint x="480" y="720" as="sourcePoint" />
            <mxPoint x="480" y="800" as="targetPoint" />
          </mxGeometry>
        </mxCell>
        <mxCell id="4SvfXK36nhVaso6GFICK-229" value="" style="rounded=0;whiteSpace=wrap;html=1;fillColor=#ffe6cc;strokeColor=#d79b00;" vertex="1" parent="1">
          <mxGeometry x="920" y="320" width="120" height="160" as="geometry" />
        </mxCell>
        <mxCell id="4SvfXK36nhVaso6GFICK-230" value="&lt;font face=&quot;CMU Serif&quot;&gt;&lt;span style=&quot;font-size: 14px;&quot;&gt;Sample 1&lt;br&gt;&lt;/span&gt;&lt;/font&gt;" style="text;html=1;align=center;verticalAlign=middle;resizable=0;points=[];autosize=1;strokeColor=none;fillColor=none;" vertex="1" parent="1">
          <mxGeometry x="940" y="385" width="80" height="30" as="geometry" />
        </mxCell>
        <mxCell id="4SvfXK36nhVaso6GFICK-231" value="" style="endArrow=classic;html=1;rounded=0;" edge="1" parent="1">
          <mxGeometry width="50" height="50" relative="1" as="geometry">
            <mxPoint x="980" y="550" as="sourcePoint" />
            <mxPoint x="980" y="570" as="targetPoint" />
          </mxGeometry>
        </mxCell>
        <mxCell id="4SvfXK36nhVaso6GFICK-232" value="" style="rounded=0;whiteSpace=wrap;html=1;fillColor=#dae8fc;strokeColor=#6c8ebf;" vertex="1" parent="1">
          <mxGeometry x="920" y="580" width="120" height="60" as="geometry" />
        </mxCell>
        <mxCell id="4SvfXK36nhVaso6GFICK-233" value="&lt;font face=&quot;CMU Serif&quot;&gt;&lt;span style=&quot;font-size: 14px;&quot;&gt;Sample 127&lt;br&gt;&lt;/span&gt;&lt;/font&gt;" style="text;html=1;align=center;verticalAlign=middle;resizable=0;points=[];autosize=1;strokeColor=none;fillColor=none;" vertex="1" parent="1">
          <mxGeometry x="935" y="595" width="90" height="30" as="geometry" />
        </mxCell>
        <mxCell id="4SvfXK36nhVaso6GFICK-239" value="" style="rounded=0;whiteSpace=wrap;html=1;fillColor=#f8cecc;strokeColor=#b85450;" vertex="1" parent="1">
          <mxGeometry x="920" y="480" width="120" height="60" as="geometry" />
        </mxCell>
        <mxCell id="4SvfXK36nhVaso6GFICK-240" value="&lt;font face=&quot;CMU Serif&quot;&gt;&lt;span style=&quot;font-size: 14px;&quot;&gt;Sample 2&lt;br&gt;&lt;/span&gt;&lt;/font&gt;" style="text;html=1;align=center;verticalAlign=middle;resizable=0;points=[];autosize=1;strokeColor=none;fillColor=none;" vertex="1" parent="1">
          <mxGeometry x="940" y="495" width="80" height="30" as="geometry" />
        </mxCell>
        <mxCell id="4SvfXK36nhVaso6GFICK-241" value="" style="rounded=0;whiteSpace=wrap;html=1;fillColor=#fff2cc;strokeColor=#d6b656;" vertex="1" parent="1">
          <mxGeometry x="920" y="680" width="120" height="120" as="geometry" />
        </mxCell>
        <mxCell id="4SvfXK36nhVaso6GFICK-242" value="&lt;font face=&quot;CMU Serif&quot;&gt;&lt;span style=&quot;font-size: 14px;&quot;&gt;Sample 128&lt;br&gt;&lt;/span&gt;&lt;/font&gt;" style="text;html=1;align=center;verticalAlign=middle;resizable=0;points=[];autosize=1;strokeColor=none;fillColor=none;" vertex="1" parent="1">
          <mxGeometry x="935" y="725" width="90" height="30" as="geometry" />
        </mxCell>
        <mxCell id="4SvfXK36nhVaso6GFICK-243" value="" style="rounded=0;whiteSpace=wrap;html=1;strokeColor=#949494;" vertex="1" parent="1">
          <mxGeometry x="920" y="639" width="120" height="41" as="geometry" />
        </mxCell>
        <mxCell id="4SvfXK36nhVaso6GFICK-244" value="&lt;font face=&quot;CMU Serif&quot;&gt;&lt;span style=&quot;font-size: 14px;&quot;&gt;Frame Header&lt;br&gt;&lt;/span&gt;&lt;/font&gt;" style="text;html=1;align=center;verticalAlign=middle;resizable=0;points=[];autosize=1;strokeColor=none;fillColor=none;" vertex="1" parent="1">
          <mxGeometry x="925" y="645" width="110" height="30" as="geometry" />
        </mxCell>
        <mxCell id="4SvfXK36nhVaso6GFICK-245" value="" style="rounded=0;whiteSpace=wrap;html=1;strokeColor=#949494;" vertex="1" parent="1">
          <mxGeometry x="920" y="119" width="120" height="41" as="geometry" />
        </mxCell>
        <mxCell id="4SvfXK36nhVaso6GFICK-246" value="&lt;font face=&quot;CMU Serif&quot;&gt;&lt;span style=&quot;font-size: 14px;&quot;&gt;Frame Header&lt;br&gt;&lt;/span&gt;&lt;/font&gt;" style="text;html=1;align=center;verticalAlign=middle;resizable=0;points=[];autosize=1;strokeColor=none;fillColor=none;" vertex="1" parent="1">
          <mxGeometry x="925" y="125" width="110" height="30" as="geometry" />
        </mxCell>
        <mxCell id="4SvfXK36nhVaso6GFICK-249" value="" style="endArrow=none;dashed=1;html=1;rounded=0;" edge="1" parent="1">
          <mxGeometry width="50" height="50" relative="1" as="geometry">
            <mxPoint x="240" y="110" as="sourcePoint" />
            <mxPoint x="240" y="80" as="targetPoint" />
          </mxGeometry>
        </mxCell>
        <mxCell id="4SvfXK36nhVaso6GFICK-250" value="" style="endArrow=none;dashed=1;html=1;rounded=0;" edge="1" parent="1">
          <mxGeometry width="50" height="50" relative="1" as="geometry">
            <mxPoint x="320" y="110" as="sourcePoint" />
            <mxPoint x="320" y="80" as="targetPoint" />
          </mxGeometry>
        </mxCell>
        <mxCell id="4SvfXK36nhVaso6GFICK-251" value="" style="endArrow=none;dashed=1;html=1;rounded=0;" edge="1" parent="1">
          <mxGeometry width="50" height="50" relative="1" as="geometry">
            <mxPoint x="280" y="110" as="sourcePoint" />
            <mxPoint x="280" y="80" as="targetPoint" />
          </mxGeometry>
        </mxCell>
        <mxCell id="4SvfXK36nhVaso6GFICK-252" value="" style="endArrow=none;dashed=1;html=1;rounded=0;" edge="1" parent="1">
          <mxGeometry width="50" height="50" relative="1" as="geometry">
            <mxPoint x="360" y="110" as="sourcePoint" />
            <mxPoint x="360" y="80" as="targetPoint" />
          </mxGeometry>
        </mxCell>
        <mxCell id="4SvfXK36nhVaso6GFICK-253" value="" style="endArrow=none;dashed=1;html=1;rounded=0;" edge="1" parent="1">
          <mxGeometry width="50" height="50" relative="1" as="geometry">
            <mxPoint x="400" y="110" as="sourcePoint" />
            <mxPoint x="400" y="80" as="targetPoint" />
          </mxGeometry>
        </mxCell>
        <mxCell id="4SvfXK36nhVaso6GFICK-254" value="" style="endArrow=none;dashed=1;html=1;rounded=0;" edge="1" parent="1">
          <mxGeometry width="50" height="50" relative="1" as="geometry">
            <mxPoint x="440" y="110" as="sourcePoint" />
            <mxPoint x="440" y="80" as="targetPoint" />
          </mxGeometry>
        </mxCell>
        <mxCell id="4SvfXK36nhVaso6GFICK-255" value="" style="endArrow=none;dashed=1;html=1;rounded=0;" edge="1" parent="1">
          <mxGeometry width="50" height="50" relative="1" as="geometry">
            <mxPoint x="520" y="110" as="sourcePoint" />
            <mxPoint x="520" y="80" as="targetPoint" />
          </mxGeometry>
        </mxCell>
        <mxCell id="4SvfXK36nhVaso6GFICK-256" value="" style="endArrow=none;dashed=1;html=1;rounded=0;" edge="1" parent="1">
          <mxGeometry width="50" height="50" relative="1" as="geometry">
            <mxPoint x="480" y="110" as="sourcePoint" />
            <mxPoint x="480" y="80" as="targetPoint" />
          </mxGeometry>
        </mxCell>
        <mxCell id="4SvfXK36nhVaso6GFICK-257" value="" style="endArrow=none;dashed=1;html=1;rounded=0;" edge="1" parent="1">
          <mxGeometry width="50" height="50" relative="1" as="geometry">
            <mxPoint x="560" y="110" as="sourcePoint" />
            <mxPoint x="560" y="80" as="targetPoint" />
          </mxGeometry>
        </mxCell>
        <mxCell id="4SvfXK36nhVaso6GFICK-258" value="" style="endArrow=none;dashed=1;html=1;rounded=0;" edge="1" parent="1">
          <mxGeometry width="50" height="50" relative="1" as="geometry">
            <mxPoint x="600" y="110" as="sourcePoint" />
            <mxPoint x="600" y="80" as="targetPoint" />
          </mxGeometry>
        </mxCell>
        <mxCell id="4SvfXK36nhVaso6GFICK-259" value="" style="endArrow=none;dashed=1;html=1;rounded=0;" edge="1" parent="1">
          <mxGeometry width="50" height="50" relative="1" as="geometry">
            <mxPoint x="640" y="110" as="sourcePoint" />
            <mxPoint x="640" y="80" as="targetPoint" />
          </mxGeometry>
        </mxCell>
        <mxCell id="4SvfXK36nhVaso6GFICK-260" value="" style="endArrow=none;dashed=1;html=1;rounded=0;" edge="1" parent="1">
          <mxGeometry width="50" height="50" relative="1" as="geometry">
            <mxPoint x="720" y="110" as="sourcePoint" />
            <mxPoint x="720" y="80" as="targetPoint" />
          </mxGeometry>
        </mxCell>
        <mxCell id="4SvfXK36nhVaso6GFICK-261" value="" style="endArrow=none;dashed=1;html=1;rounded=0;" edge="1" parent="1">
          <mxGeometry width="50" height="50" relative="1" as="geometry">
            <mxPoint x="680" y="110" as="sourcePoint" />
            <mxPoint x="680" y="80" as="targetPoint" />
          </mxGeometry>
        </mxCell>
        <mxCell id="4SvfXK36nhVaso6GFICK-262" value="" style="endArrow=none;dashed=1;html=1;rounded=0;" edge="1" parent="1">
          <mxGeometry width="50" height="50" relative="1" as="geometry">
            <mxPoint x="760" y="110" as="sourcePoint" />
            <mxPoint x="760" y="80" as="targetPoint" />
          </mxGeometry>
        </mxCell>
        <mxCell id="4SvfXK36nhVaso6GFICK-263" value="" style="endArrow=none;dashed=1;html=1;rounded=0;" edge="1" parent="1">
          <mxGeometry width="50" height="50" relative="1" as="geometry">
            <mxPoint x="800" y="110" as="sourcePoint" />
            <mxPoint x="800" y="80" as="targetPoint" />
          </mxGeometry>
        </mxCell>
        <mxCell id="4SvfXK36nhVaso6GFICK-264" value="" style="endArrow=none;dashed=1;html=1;rounded=0;" edge="1" parent="1">
          <mxGeometry width="50" height="50" relative="1" as="geometry">
            <mxPoint x="840" y="110" as="sourcePoint" />
            <mxPoint x="840" y="80" as="targetPoint" />
          </mxGeometry>
        </mxCell>
        <mxCell id="4SvfXK36nhVaso6GFICK-265" value="" style="endArrow=none;dashed=1;html=1;rounded=0;" edge="1" parent="1">
          <mxGeometry width="50" height="50" relative="1" as="geometry">
            <mxPoint x="880" y="110" as="sourcePoint" />
            <mxPoint x="880" y="80" as="targetPoint" />
          </mxGeometry>
        </mxCell>
        <mxCell id="4SvfXK36nhVaso6GFICK-266" value="&lt;font face=&quot;CMU Serif&quot;&gt;&lt;span style=&quot;font-size: 14px;&quot;&gt;0&lt;br&gt;&lt;/span&gt;&lt;/font&gt;" style="text;html=1;align=center;verticalAlign=middle;resizable=0;points=[];autosize=1;strokeColor=none;fillColor=none;" vertex="1" parent="1">
          <mxGeometry x="245" y="80" width="30" height="30" as="geometry" />
        </mxCell>
        <mxCell id="4SvfXK36nhVaso6GFICK-267" value="&lt;font face=&quot;CMU Serif&quot;&gt;&lt;span style=&quot;font-size: 14px;&quot;&gt;1&lt;br&gt;&lt;/span&gt;&lt;/font&gt;" style="text;html=1;align=center;verticalAlign=middle;resizable=0;points=[];autosize=1;strokeColor=none;fillColor=none;" vertex="1" parent="1">
          <mxGeometry x="285" y="80" width="30" height="30" as="geometry" />
        </mxCell>
        <mxCell id="4SvfXK36nhVaso6GFICK-269" value="&lt;font face=&quot;CMU Serif&quot;&gt;&lt;span style=&quot;font-size: 14px;&quot;&gt;2&lt;br&gt;&lt;/span&gt;&lt;/font&gt;" style="text;html=1;align=center;verticalAlign=middle;resizable=0;points=[];autosize=1;strokeColor=none;fillColor=none;" vertex="1" parent="1">
          <mxGeometry x="325" y="80" width="30" height="30" as="geometry" />
        </mxCell>
        <mxCell id="4SvfXK36nhVaso6GFICK-270" value="&lt;font face=&quot;CMU Serif&quot;&gt;&lt;span style=&quot;font-size: 14px;&quot;&gt;3&lt;br&gt;&lt;/span&gt;&lt;/font&gt;" style="text;html=1;align=center;verticalAlign=middle;resizable=0;points=[];autosize=1;strokeColor=none;fillColor=none;" vertex="1" parent="1">
          <mxGeometry x="365" y="80" width="30" height="30" as="geometry" />
        </mxCell>
        <mxCell id="4SvfXK36nhVaso6GFICK-271" value="&lt;font face=&quot;CMU Serif&quot;&gt;&lt;span style=&quot;font-size: 14px;&quot;&gt;4&lt;br&gt;&lt;/span&gt;&lt;/font&gt;" style="text;html=1;align=center;verticalAlign=middle;resizable=0;points=[];autosize=1;strokeColor=none;fillColor=none;" vertex="1" parent="1">
          <mxGeometry x="405" y="80" width="30" height="30" as="geometry" />
        </mxCell>
        <mxCell id="4SvfXK36nhVaso6GFICK-273" value="&lt;font face=&quot;CMU Serif&quot;&gt;&lt;span style=&quot;font-size: 14px;&quot;&gt;5&lt;br&gt;&lt;/span&gt;&lt;/font&gt;" style="text;html=1;align=center;verticalAlign=middle;resizable=0;points=[];autosize=1;strokeColor=none;fillColor=none;" vertex="1" parent="1">
          <mxGeometry x="445" y="80" width="30" height="30" as="geometry" />
        </mxCell>
        <mxCell id="4SvfXK36nhVaso6GFICK-274" value="&lt;font face=&quot;CMU Serif&quot;&gt;&lt;span style=&quot;font-size: 14px;&quot;&gt;6&lt;br&gt;&lt;/span&gt;&lt;/font&gt;" style="text;html=1;align=center;verticalAlign=middle;resizable=0;points=[];autosize=1;strokeColor=none;fillColor=none;" vertex="1" parent="1">
          <mxGeometry x="485" y="80" width="30" height="30" as="geometry" />
        </mxCell>
        <mxCell id="4SvfXK36nhVaso6GFICK-275" value="&lt;font face=&quot;CMU Serif&quot;&gt;&lt;span style=&quot;font-size: 14px;&quot;&gt;7&lt;br&gt;&lt;/span&gt;&lt;/font&gt;" style="text;html=1;align=center;verticalAlign=middle;resizable=0;points=[];autosize=1;strokeColor=none;fillColor=none;" vertex="1" parent="1">
          <mxGeometry x="525" y="80" width="30" height="30" as="geometry" />
        </mxCell>
        <mxCell id="4SvfXK36nhVaso6GFICK-276" value="&lt;font face=&quot;CMU Serif&quot;&gt;&lt;span style=&quot;font-size: 14px;&quot;&gt;8&lt;br&gt;&lt;/span&gt;&lt;/font&gt;" style="text;html=1;align=center;verticalAlign=middle;resizable=0;points=[];autosize=1;strokeColor=none;fillColor=none;" vertex="1" parent="1">
          <mxGeometry x="565" y="80" width="30" height="30" as="geometry" />
        </mxCell>
        <mxCell id="4SvfXK36nhVaso6GFICK-278" value="&lt;font face=&quot;CMU Serif&quot;&gt;&lt;span style=&quot;font-size: 14px;&quot;&gt;9&lt;br&gt;&lt;/span&gt;&lt;/font&gt;" style="text;html=1;align=center;verticalAlign=middle;resizable=0;points=[];autosize=1;strokeColor=none;fillColor=none;" vertex="1" parent="1">
          <mxGeometry x="605" y="80" width="30" height="30" as="geometry" />
        </mxCell>
        <mxCell id="4SvfXK36nhVaso6GFICK-279" value="&lt;font face=&quot;CMU Serif&quot;&gt;&lt;span style=&quot;font-size: 14px;&quot;&gt;10&lt;br&gt;&lt;/span&gt;&lt;/font&gt;" style="text;html=1;align=center;verticalAlign=middle;resizable=0;points=[];autosize=1;strokeColor=none;fillColor=none;" vertex="1" parent="1">
          <mxGeometry x="640" y="80" width="40" height="30" as="geometry" />
        </mxCell>
        <mxCell id="4SvfXK36nhVaso6GFICK-280" value="&lt;font face=&quot;CMU Serif&quot;&gt;&lt;span style=&quot;font-size: 14px;&quot;&gt;11&lt;br&gt;&lt;/span&gt;&lt;/font&gt;" style="text;html=1;align=center;verticalAlign=middle;resizable=0;points=[];autosize=1;strokeColor=none;fillColor=none;" vertex="1" parent="1">
          <mxGeometry x="680" y="80" width="40" height="30" as="geometry" />
        </mxCell>
        <mxCell id="4SvfXK36nhVaso6GFICK-281" value="&lt;font face=&quot;CMU Serif&quot;&gt;&lt;span style=&quot;font-size: 14px;&quot;&gt;12&lt;br&gt;&lt;/span&gt;&lt;/font&gt;" style="text;html=1;align=center;verticalAlign=middle;resizable=0;points=[];autosize=1;strokeColor=none;fillColor=none;" vertex="1" parent="1">
          <mxGeometry x="720" y="80" width="40" height="30" as="geometry" />
        </mxCell>
        <mxCell id="4SvfXK36nhVaso6GFICK-282" value="&lt;font face=&quot;CMU Serif&quot;&gt;&lt;span style=&quot;font-size: 14px;&quot;&gt;13&lt;br&gt;&lt;/span&gt;&lt;/font&gt;" style="text;html=1;align=center;verticalAlign=middle;resizable=0;points=[];autosize=1;strokeColor=none;fillColor=none;" vertex="1" parent="1">
          <mxGeometry x="760" y="80" width="40" height="30" as="geometry" />
        </mxCell>
        <mxCell id="4SvfXK36nhVaso6GFICK-283" value="&lt;font face=&quot;CMU Serif&quot;&gt;&lt;span style=&quot;font-size: 14px;&quot;&gt;14&lt;br&gt;&lt;/span&gt;&lt;/font&gt;" style="text;html=1;align=center;verticalAlign=middle;resizable=0;points=[];autosize=1;strokeColor=none;fillColor=none;" vertex="1" parent="1">
          <mxGeometry x="800" y="80" width="40" height="30" as="geometry" />
        </mxCell>
        <mxCell id="4SvfXK36nhVaso6GFICK-284" value="&lt;font face=&quot;CMU Serif&quot;&gt;&lt;span style=&quot;font-size: 14px;&quot;&gt;15&lt;br&gt;&lt;/span&gt;&lt;/font&gt;" style="text;html=1;align=center;verticalAlign=middle;resizable=0;points=[];autosize=1;strokeColor=none;fillColor=none;" vertex="1" parent="1">
          <mxGeometry x="840" y="80" width="40" height="30" as="geometry" />
        </mxCell>
        <mxCell id="4SvfXK36nhVaso6GFICK-285" value="&lt;div style=&quot;&quot;&gt;&lt;span style=&quot;font-size: 14px; font-family: &amp;quot;CMU Serif&amp;quot;; background-color: initial;&quot;&gt;Byte Index&lt;/span&gt;&lt;/div&gt;" style="text;html=1;align=left;verticalAlign=middle;resizable=0;points=[];autosize=1;strokeColor=none;fillColor=none;" vertex="1" parent="1">
          <mxGeometry x="890" y="80" width="90" height="30" as="geometry" />
        </mxCell>
      </root>
    </mxGraphModel>
  </diagram>
</mxfile>
